G75*
%MOIN*%
%OFA0B0*%
%FSLAX25Y25*%
%IPPOS*%
%LPD*%
%AMOC8*
5,1,8,0,0,1.08239X$1,22.5*
%
%ADD10C,0.00394*%
%ADD11C,0.00681*%
%ADD12R,0.06600X0.06600*%
%ADD13OC8,0.06600*%
%ADD14C,0.02306*%
%ADD15C,0.01840*%
%ADD16C,0.01125*%
%ADD17C,0.00720*%
%ADD18C,0.01834*%
%ADD19C,0.05600*%
%ADD20C,0.04040*%
%ADD21R,0.02175X0.05915*%
%ADD22C,0.05324*%
%ADD23C,0.04600*%
%ADD24R,0.04362X0.04362*%
D10*
X0116898Y0072600D02*
X0116898Y0110443D01*
X0116898Y0110442D02*
X0116906Y0110622D01*
X0116911Y0110802D01*
X0116910Y0110982D01*
X0116906Y0111162D01*
X0116897Y0111342D01*
X0116884Y0111521D01*
X0116866Y0111700D01*
X0116844Y0111879D01*
X0116818Y0112057D01*
X0116787Y0112234D01*
X0116753Y0112411D01*
X0116714Y0112587D01*
X0116670Y0112761D01*
X0116623Y0112935D01*
X0116571Y0113107D01*
X0116515Y0113278D01*
X0116455Y0113448D01*
X0116391Y0113616D01*
X0116323Y0113783D01*
X0116251Y0113948D01*
X0116175Y0114111D01*
X0116095Y0114272D01*
X0116011Y0114431D01*
X0115924Y0114588D01*
X0115832Y0114743D01*
X0115737Y0114896D01*
X0115638Y0115047D01*
X0115536Y0115195D01*
X0115430Y0115340D01*
X0115321Y0115483D01*
X0115208Y0115623D01*
X0115091Y0115760D01*
X0114972Y0115895D01*
X0114849Y0116027D01*
X0114723Y0116155D01*
X0114594Y0116281D01*
X0114462Y0116403D01*
X0114328Y0116522D01*
X0114190Y0116638D01*
X0114050Y0116751D01*
X0113906Y0116860D01*
X0113761Y0116965D01*
X0113612Y0117068D01*
X0113462Y0117166D01*
X0113309Y0117261D01*
X0113154Y0117352D01*
X0112996Y0117439D01*
X0112837Y0117522D01*
X0112675Y0117602D01*
X0112512Y0117678D01*
X0112347Y0117749D01*
X0112180Y0117817D01*
X0112012Y0117881D01*
X0111842Y0117940D01*
X0111671Y0117996D01*
X0111498Y0118047D01*
X0111325Y0118094D01*
X0111150Y0118137D01*
X0110974Y0118175D01*
X0110797Y0118210D01*
X0110620Y0118240D01*
X0110442Y0118266D01*
X0110263Y0118287D01*
X0110084Y0118304D01*
X0109905Y0118317D01*
X0070535Y0118317D01*
X0070534Y0118317D02*
X0070334Y0118312D01*
X0070133Y0118312D01*
X0069932Y0118316D01*
X0069731Y0118326D01*
X0069531Y0118341D01*
X0069331Y0118361D01*
X0069132Y0118385D01*
X0068933Y0118415D01*
X0068735Y0118449D01*
X0068538Y0118488D01*
X0068342Y0118532D01*
X0068148Y0118581D01*
X0067954Y0118634D01*
X0067762Y0118692D01*
X0067571Y0118755D01*
X0067382Y0118823D01*
X0067195Y0118895D01*
X0067009Y0118972D01*
X0066825Y0119053D01*
X0066644Y0119139D01*
X0066464Y0119229D01*
X0066287Y0119324D01*
X0066112Y0119423D01*
X0065940Y0119526D01*
X0065770Y0119634D01*
X0065603Y0119745D01*
X0065439Y0119861D01*
X0065278Y0119980D01*
X0065119Y0120104D01*
X0064964Y0120231D01*
X0064812Y0120362D01*
X0064663Y0120497D01*
X0064518Y0120636D01*
X0064376Y0120778D01*
X0064237Y0120923D01*
X0064102Y0121072D01*
X0063971Y0121224D01*
X0063844Y0121379D01*
X0063720Y0121537D01*
X0063600Y0121699D01*
X0063485Y0121863D01*
X0063373Y0122030D01*
X0063266Y0122199D01*
X0063162Y0122372D01*
X0063063Y0122546D01*
X0062968Y0122723D01*
X0062878Y0122903D01*
X0062792Y0123084D01*
X0062711Y0123268D01*
X0062634Y0123453D01*
X0062562Y0123641D01*
X0062494Y0123830D01*
X0062431Y0124021D01*
X0062372Y0124213D01*
X0062319Y0124406D01*
X0062270Y0124601D01*
X0062226Y0124797D01*
X0062187Y0124994D01*
X0062152Y0125192D01*
X0062123Y0125391D01*
X0062098Y0125590D01*
X0062078Y0125790D01*
X0062064Y0125990D01*
X0062054Y0126191D01*
X0062054Y0164033D01*
X0062054Y0164034D02*
X0062059Y0164217D01*
X0062060Y0164400D01*
X0062056Y0164583D01*
X0062048Y0164766D01*
X0062035Y0164948D01*
X0062018Y0165131D01*
X0061997Y0165313D01*
X0061971Y0165494D01*
X0061941Y0165674D01*
X0061907Y0165854D01*
X0061868Y0166033D01*
X0061825Y0166211D01*
X0061777Y0166388D01*
X0061725Y0166564D01*
X0061670Y0166738D01*
X0061609Y0166911D01*
X0061545Y0167082D01*
X0061477Y0167252D01*
X0061404Y0167420D01*
X0061328Y0167587D01*
X0061247Y0167751D01*
X0061163Y0167914D01*
X0061074Y0168074D01*
X0060982Y0168232D01*
X0060886Y0168388D01*
X0060786Y0168542D01*
X0060683Y0168693D01*
X0060576Y0168841D01*
X0060465Y0168987D01*
X0060351Y0169130D01*
X0060234Y0169271D01*
X0060113Y0169408D01*
X0059988Y0169543D01*
X0059861Y0169674D01*
X0059731Y0169803D01*
X0059597Y0169928D01*
X0059460Y0170050D01*
X0059321Y0170168D01*
X0059179Y0170284D01*
X0059033Y0170395D01*
X0058886Y0170504D01*
X0058735Y0170608D01*
X0058583Y0170709D01*
X0058427Y0170806D01*
X0058270Y0170900D01*
X0058110Y0170989D01*
X0057949Y0171075D01*
X0057785Y0171157D01*
X0057619Y0171235D01*
X0057451Y0171308D01*
X0057282Y0171378D01*
X0057111Y0171444D01*
X0056939Y0171505D01*
X0056765Y0171562D01*
X0056589Y0171615D01*
X0056413Y0171664D01*
X0056235Y0171709D01*
X0056057Y0171749D01*
X0055877Y0171785D01*
X0055697Y0171816D01*
X0055516Y0171843D01*
X0055334Y0171866D01*
X0055152Y0171884D01*
X0054969Y0171898D01*
X0054786Y0171908D01*
X0054787Y0171907D02*
X0015417Y0171907D01*
X0015416Y0171908D02*
X0015235Y0171922D01*
X0015054Y0171941D01*
X0014874Y0171964D01*
X0014695Y0171991D01*
X0014516Y0172023D01*
X0014338Y0172059D01*
X0014161Y0172100D01*
X0013985Y0172145D01*
X0013810Y0172194D01*
X0013636Y0172248D01*
X0013464Y0172305D01*
X0013293Y0172367D01*
X0013124Y0172433D01*
X0012956Y0172504D01*
X0012790Y0172578D01*
X0012627Y0172657D01*
X0012465Y0172739D01*
X0012305Y0172825D01*
X0012147Y0172916D01*
X0011992Y0173010D01*
X0011839Y0173108D01*
X0011688Y0173209D01*
X0011540Y0173314D01*
X0011394Y0173423D01*
X0011252Y0173536D01*
X0011112Y0173652D01*
X0010975Y0173771D01*
X0010841Y0173893D01*
X0010710Y0174019D01*
X0010582Y0174148D01*
X0010457Y0174281D01*
X0010336Y0174416D01*
X0010217Y0174554D01*
X0010103Y0174695D01*
X0009992Y0174838D01*
X0009884Y0174985D01*
X0009780Y0175134D01*
X0009680Y0175285D01*
X0009583Y0175439D01*
X0009491Y0175596D01*
X0009402Y0175754D01*
X0009317Y0175915D01*
X0009236Y0176077D01*
X0009159Y0176242D01*
X0009086Y0176408D01*
X0009017Y0176577D01*
X0008953Y0176746D01*
X0008892Y0176918D01*
X0008836Y0177090D01*
X0008784Y0177265D01*
X0008736Y0177440D01*
X0008693Y0177616D01*
X0008654Y0177794D01*
X0008619Y0177972D01*
X0008589Y0178151D01*
X0008563Y0178331D01*
X0008542Y0178512D01*
X0008525Y0178692D01*
X0008512Y0178874D01*
X0008504Y0179055D01*
X0008500Y0179237D01*
X0008501Y0179419D01*
X0008506Y0179600D01*
X0008516Y0179782D01*
X0008516Y0179781D02*
X0008516Y0275136D01*
X0008516Y0275135D02*
X0008506Y0275314D01*
X0008501Y0275493D01*
X0008500Y0275672D01*
X0008504Y0275851D01*
X0008511Y0276029D01*
X0008523Y0276208D01*
X0008540Y0276386D01*
X0008560Y0276564D01*
X0008585Y0276741D01*
X0008614Y0276917D01*
X0008648Y0277093D01*
X0008685Y0277268D01*
X0008727Y0277442D01*
X0008773Y0277615D01*
X0008823Y0277786D01*
X0008878Y0277957D01*
X0008936Y0278126D01*
X0008999Y0278294D01*
X0009065Y0278460D01*
X0009136Y0278624D01*
X0009211Y0278787D01*
X0009289Y0278947D01*
X0009371Y0279106D01*
X0009457Y0279263D01*
X0009547Y0279418D01*
X0009641Y0279570D01*
X0009738Y0279720D01*
X0009839Y0279868D01*
X0009943Y0280014D01*
X0010051Y0280156D01*
X0010162Y0280296D01*
X0010277Y0280434D01*
X0010395Y0280568D01*
X0010516Y0280700D01*
X0010640Y0280829D01*
X0010768Y0280954D01*
X0010898Y0281077D01*
X0011031Y0281196D01*
X0011167Y0281312D01*
X0011306Y0281425D01*
X0011448Y0281534D01*
X0011592Y0281640D01*
X0011739Y0281743D01*
X0011888Y0281841D01*
X0012039Y0281937D01*
X0012193Y0282028D01*
X0012349Y0282116D01*
X0012507Y0282200D01*
X0012667Y0282280D01*
X0012829Y0282356D01*
X0012992Y0282429D01*
X0013157Y0282497D01*
X0013324Y0282561D01*
X0013493Y0282622D01*
X0013663Y0282678D01*
X0013834Y0282730D01*
X0014006Y0282778D01*
X0014180Y0282822D01*
X0014354Y0282861D01*
X0014530Y0282896D01*
X0014706Y0282928D01*
X0014883Y0282954D01*
X0015060Y0282977D01*
X0015238Y0282995D01*
X0015416Y0283009D01*
X0015417Y0283010D02*
X0052874Y0283010D01*
X0052875Y0283009D02*
X0053065Y0283011D01*
X0053255Y0283018D01*
X0053444Y0283029D01*
X0053634Y0283045D01*
X0053823Y0283065D01*
X0054011Y0283090D01*
X0054199Y0283120D01*
X0054386Y0283154D01*
X0054572Y0283192D01*
X0054757Y0283235D01*
X0054941Y0283283D01*
X0055124Y0283335D01*
X0055306Y0283391D01*
X0055486Y0283452D01*
X0055664Y0283517D01*
X0055841Y0283586D01*
X0056016Y0283660D01*
X0056190Y0283738D01*
X0056361Y0283819D01*
X0056531Y0283906D01*
X0056698Y0283996D01*
X0056863Y0284090D01*
X0057026Y0284188D01*
X0057186Y0284290D01*
X0057344Y0284396D01*
X0057499Y0284506D01*
X0057652Y0284619D01*
X0057802Y0284736D01*
X0057949Y0284857D01*
X0058092Y0284981D01*
X0058233Y0285108D01*
X0058371Y0285239D01*
X0058506Y0285374D01*
X0058637Y0285511D01*
X0058765Y0285652D01*
X0058889Y0285795D01*
X0059010Y0285942D01*
X0059128Y0286091D01*
X0059241Y0286244D01*
X0059351Y0286398D01*
X0059458Y0286556D01*
X0059560Y0286716D01*
X0059659Y0286879D01*
X0059753Y0287044D01*
X0059844Y0287211D01*
X0059930Y0287380D01*
X0060013Y0287551D01*
X0060091Y0287724D01*
X0060165Y0287900D01*
X0060235Y0288076D01*
X0060300Y0288255D01*
X0060361Y0288435D01*
X0060418Y0288616D01*
X0060470Y0288799D01*
X0060518Y0288983D01*
X0060562Y0289168D01*
X0060601Y0289354D01*
X0060635Y0289541D01*
X0060665Y0289728D01*
X0060691Y0289917D01*
X0060711Y0290106D01*
X0060728Y0290295D01*
X0060739Y0290485D01*
X0060746Y0290675D01*
X0060749Y0290865D01*
X0060748Y0290865D02*
X0060748Y0327419D01*
X0060749Y0327419D02*
X0060774Y0327632D01*
X0060805Y0327845D01*
X0060841Y0328056D01*
X0060882Y0328267D01*
X0060928Y0328477D01*
X0060979Y0328685D01*
X0061036Y0328892D01*
X0061097Y0329098D01*
X0061163Y0329302D01*
X0061234Y0329505D01*
X0061310Y0329706D01*
X0061391Y0329904D01*
X0061476Y0330101D01*
X0061567Y0330296D01*
X0061662Y0330488D01*
X0061761Y0330679D01*
X0061865Y0330866D01*
X0061974Y0331051D01*
X0062087Y0331234D01*
X0062205Y0331413D01*
X0062326Y0331590D01*
X0062452Y0331764D01*
X0062582Y0331935D01*
X0062717Y0332102D01*
X0062855Y0332266D01*
X0062997Y0332427D01*
X0063143Y0332584D01*
X0063293Y0332738D01*
X0063446Y0332888D01*
X0063604Y0333034D01*
X0063764Y0333177D01*
X0063928Y0333315D01*
X0064095Y0333450D01*
X0064266Y0333580D01*
X0064439Y0333707D01*
X0064616Y0333829D01*
X0064795Y0333947D01*
X0064977Y0334060D01*
X0065162Y0334169D01*
X0065350Y0334273D01*
X0065540Y0334373D01*
X0065732Y0334469D01*
X0065927Y0334559D01*
X0066123Y0334645D01*
X0066322Y0334726D01*
X0066523Y0334803D01*
X0066725Y0334874D01*
X0066929Y0334941D01*
X0067135Y0335002D01*
X0067342Y0335059D01*
X0067550Y0335110D01*
X0067760Y0335157D01*
X0067970Y0335198D01*
X0068182Y0335234D01*
X0068394Y0335266D01*
X0068607Y0335292D01*
X0068821Y0335313D01*
X0069035Y0335328D01*
X0069249Y0335339D01*
X0069464Y0335344D01*
X0069679Y0335344D01*
X0069893Y0335339D01*
X0070108Y0335329D01*
X0070322Y0335314D01*
X0070535Y0335293D01*
X0165023Y0335293D01*
X0174353Y0327419D02*
X0174353Y0290884D01*
X0174355Y0290693D01*
X0174362Y0290503D01*
X0174374Y0290312D01*
X0174390Y0290122D01*
X0174411Y0289933D01*
X0174436Y0289744D01*
X0174466Y0289555D01*
X0174500Y0289368D01*
X0174539Y0289181D01*
X0174582Y0288995D01*
X0174630Y0288810D01*
X0174683Y0288627D01*
X0174739Y0288445D01*
X0174800Y0288264D01*
X0174866Y0288085D01*
X0174936Y0287908D01*
X0175010Y0287732D01*
X0175088Y0287558D01*
X0175171Y0287386D01*
X0175257Y0287216D01*
X0175348Y0287048D01*
X0175442Y0286883D01*
X0175541Y0286719D01*
X0175644Y0286559D01*
X0175750Y0286400D01*
X0175860Y0286245D01*
X0175974Y0286092D01*
X0176092Y0285942D01*
X0176213Y0285794D01*
X0176338Y0285650D01*
X0176466Y0285509D01*
X0176598Y0285371D01*
X0176733Y0285236D01*
X0176871Y0285104D01*
X0177012Y0284976D01*
X0177156Y0284851D01*
X0177304Y0284730D01*
X0177454Y0284612D01*
X0177607Y0284498D01*
X0177762Y0284388D01*
X0177921Y0284282D01*
X0178081Y0284179D01*
X0178245Y0284080D01*
X0178410Y0283986D01*
X0178578Y0283895D01*
X0178748Y0283809D01*
X0178920Y0283726D01*
X0179094Y0283648D01*
X0179270Y0283574D01*
X0179447Y0283504D01*
X0179626Y0283438D01*
X0179807Y0283377D01*
X0179989Y0283321D01*
X0180172Y0283268D01*
X0180357Y0283220D01*
X0180543Y0283177D01*
X0180730Y0283138D01*
X0180917Y0283104D01*
X0181106Y0283074D01*
X0181295Y0283049D01*
X0181484Y0283028D01*
X0181674Y0283012D01*
X0181865Y0283000D01*
X0182055Y0282993D01*
X0182246Y0282991D01*
X0228015Y0282991D01*
X0228015Y0282990D02*
X0228215Y0282987D01*
X0228414Y0282989D01*
X0228614Y0282995D01*
X0228813Y0283006D01*
X0229012Y0283023D01*
X0229211Y0283044D01*
X0229408Y0283070D01*
X0229606Y0283101D01*
X0229802Y0283136D01*
X0229997Y0283177D01*
X0230192Y0283222D01*
X0230385Y0283272D01*
X0230577Y0283327D01*
X0230767Y0283386D01*
X0230956Y0283450D01*
X0231144Y0283519D01*
X0231330Y0283592D01*
X0231513Y0283670D01*
X0231695Y0283752D01*
X0231875Y0283839D01*
X0232052Y0283930D01*
X0232228Y0284026D01*
X0232401Y0284125D01*
X0232571Y0284229D01*
X0232739Y0284337D01*
X0232904Y0284450D01*
X0233066Y0284566D01*
X0233225Y0284686D01*
X0233382Y0284810D01*
X0233535Y0284938D01*
X0233685Y0285069D01*
X0233832Y0285205D01*
X0233976Y0285343D01*
X0234116Y0285486D01*
X0234252Y0285631D01*
X0234385Y0285780D01*
X0234514Y0285932D01*
X0234640Y0286087D01*
X0234761Y0286246D01*
X0234879Y0286407D01*
X0234992Y0286571D01*
X0235102Y0286738D01*
X0235207Y0286907D01*
X0235309Y0287079D01*
X0235406Y0287254D01*
X0235498Y0287430D01*
X0235587Y0287609D01*
X0235671Y0287791D01*
X0235750Y0287974D01*
X0235825Y0288159D01*
X0235895Y0288345D01*
X0235961Y0288534D01*
X0236022Y0288724D01*
X0236079Y0288915D01*
X0236130Y0289108D01*
X0236177Y0289302D01*
X0236220Y0289497D01*
X0236257Y0289693D01*
X0236290Y0289890D01*
X0236317Y0290088D01*
X0236340Y0290286D01*
X0236358Y0290485D01*
X0236371Y0290684D01*
X0236380Y0290883D01*
X0236379Y0290884D02*
X0236379Y0330235D01*
X0236414Y0330391D01*
X0236454Y0330546D01*
X0236498Y0330700D01*
X0236545Y0330853D01*
X0236595Y0331004D01*
X0236650Y0331155D01*
X0236708Y0331304D01*
X0236770Y0331451D01*
X0236835Y0331597D01*
X0236903Y0331742D01*
X0236976Y0331884D01*
X0237051Y0332025D01*
X0237130Y0332164D01*
X0237212Y0332302D01*
X0237298Y0332437D01*
X0237387Y0332570D01*
X0237479Y0332700D01*
X0237574Y0332829D01*
X0237672Y0332955D01*
X0237774Y0333079D01*
X0237878Y0333200D01*
X0237985Y0333319D01*
X0238095Y0333435D01*
X0238208Y0333549D01*
X0238323Y0333659D01*
X0238441Y0333767D01*
X0238562Y0333872D01*
X0238685Y0333974D01*
X0238811Y0334073D01*
X0238939Y0334169D01*
X0239069Y0334262D01*
X0239201Y0334352D01*
X0239336Y0334438D01*
X0239472Y0334521D01*
X0239611Y0334601D01*
X0239751Y0334677D01*
X0239894Y0334750D01*
X0240038Y0334820D01*
X0240183Y0334886D01*
X0240331Y0334949D01*
X0240479Y0335008D01*
X0240629Y0335063D01*
X0240781Y0335115D01*
X0240933Y0335163D01*
X0241087Y0335207D01*
X0241241Y0335248D01*
X0241397Y0335285D01*
X0241553Y0335318D01*
X0241711Y0335347D01*
X0241869Y0335373D01*
X0242027Y0335394D01*
X0242186Y0335412D01*
X0242345Y0335426D01*
X0242505Y0335436D01*
X0242665Y0335443D01*
X0242825Y0335445D01*
X0242985Y0335444D01*
X0243144Y0335438D01*
X0243304Y0335429D01*
X0243463Y0335416D01*
X0243622Y0335399D01*
X0243781Y0335378D01*
X0243939Y0335354D01*
X0244096Y0335326D01*
X0244253Y0335293D01*
X0342110Y0335293D01*
X0342267Y0335326D01*
X0342424Y0335354D01*
X0342582Y0335378D01*
X0342741Y0335399D01*
X0342900Y0335416D01*
X0343059Y0335429D01*
X0343219Y0335438D01*
X0343378Y0335444D01*
X0343538Y0335445D01*
X0343698Y0335443D01*
X0343858Y0335436D01*
X0344018Y0335426D01*
X0344177Y0335412D01*
X0344336Y0335394D01*
X0344494Y0335373D01*
X0344652Y0335347D01*
X0344810Y0335318D01*
X0344966Y0335285D01*
X0345122Y0335248D01*
X0345276Y0335207D01*
X0345430Y0335163D01*
X0345582Y0335115D01*
X0345734Y0335063D01*
X0345884Y0335008D01*
X0346032Y0334949D01*
X0346180Y0334886D01*
X0346325Y0334820D01*
X0346469Y0334750D01*
X0346612Y0334677D01*
X0346752Y0334601D01*
X0346891Y0334521D01*
X0347027Y0334438D01*
X0347162Y0334352D01*
X0347294Y0334262D01*
X0347424Y0334169D01*
X0347552Y0334073D01*
X0347678Y0333974D01*
X0347801Y0333872D01*
X0347922Y0333767D01*
X0348040Y0333659D01*
X0348155Y0333549D01*
X0348268Y0333435D01*
X0348378Y0333319D01*
X0348485Y0333200D01*
X0348589Y0333079D01*
X0348691Y0332955D01*
X0348789Y0332829D01*
X0348884Y0332700D01*
X0348976Y0332570D01*
X0349065Y0332437D01*
X0349151Y0332302D01*
X0349233Y0332164D01*
X0349312Y0332025D01*
X0349387Y0331884D01*
X0349460Y0331742D01*
X0349528Y0331597D01*
X0349593Y0331451D01*
X0349655Y0331304D01*
X0349713Y0331155D01*
X0349768Y0331004D01*
X0349818Y0330853D01*
X0349865Y0330700D01*
X0349909Y0330546D01*
X0349949Y0330391D01*
X0349984Y0330235D01*
X0349984Y0290865D01*
X0349987Y0290675D01*
X0349994Y0290485D01*
X0350005Y0290295D01*
X0350022Y0290106D01*
X0350042Y0289917D01*
X0350068Y0289728D01*
X0350098Y0289541D01*
X0350132Y0289354D01*
X0350171Y0289168D01*
X0350215Y0288983D01*
X0350263Y0288799D01*
X0350315Y0288616D01*
X0350372Y0288435D01*
X0350433Y0288255D01*
X0350498Y0288076D01*
X0350568Y0287900D01*
X0350642Y0287724D01*
X0350720Y0287551D01*
X0350803Y0287380D01*
X0350889Y0287211D01*
X0350980Y0287044D01*
X0351074Y0286879D01*
X0351173Y0286716D01*
X0351275Y0286556D01*
X0351382Y0286398D01*
X0351492Y0286244D01*
X0351605Y0286091D01*
X0351723Y0285942D01*
X0351844Y0285795D01*
X0351968Y0285652D01*
X0352096Y0285511D01*
X0352227Y0285374D01*
X0352362Y0285239D01*
X0352500Y0285108D01*
X0352641Y0284981D01*
X0352784Y0284857D01*
X0352931Y0284736D01*
X0353081Y0284619D01*
X0353234Y0284506D01*
X0353389Y0284396D01*
X0353547Y0284290D01*
X0353707Y0284188D01*
X0353870Y0284090D01*
X0354035Y0283996D01*
X0354202Y0283906D01*
X0354372Y0283819D01*
X0354543Y0283738D01*
X0354717Y0283660D01*
X0354892Y0283586D01*
X0355069Y0283517D01*
X0355247Y0283452D01*
X0355427Y0283391D01*
X0355609Y0283335D01*
X0355792Y0283283D01*
X0355976Y0283235D01*
X0356161Y0283192D01*
X0356347Y0283154D01*
X0356534Y0283120D01*
X0356722Y0283090D01*
X0356910Y0283065D01*
X0357099Y0283045D01*
X0357289Y0283029D01*
X0357478Y0283018D01*
X0357668Y0283011D01*
X0357858Y0283009D01*
X0357858Y0283010D02*
X0393369Y0283010D01*
X0393572Y0283019D01*
X0393774Y0283024D01*
X0393976Y0283023D01*
X0394179Y0283018D01*
X0394381Y0283008D01*
X0394582Y0282992D01*
X0394784Y0282972D01*
X0394985Y0282948D01*
X0395185Y0282918D01*
X0395384Y0282883D01*
X0395583Y0282844D01*
X0395780Y0282800D01*
X0395977Y0282751D01*
X0396172Y0282697D01*
X0396366Y0282639D01*
X0396558Y0282576D01*
X0396749Y0282509D01*
X0396938Y0282436D01*
X0397125Y0282360D01*
X0397311Y0282278D01*
X0397494Y0282193D01*
X0397675Y0282103D01*
X0397854Y0282008D01*
X0398031Y0281909D01*
X0398205Y0281806D01*
X0398377Y0281699D01*
X0398546Y0281588D01*
X0398712Y0281472D01*
X0398875Y0281353D01*
X0399036Y0281230D01*
X0399194Y0281103D01*
X0399348Y0280972D01*
X0399499Y0280837D01*
X0399647Y0280699D01*
X0399791Y0280558D01*
X0399933Y0280412D01*
X0400070Y0280264D01*
X0400204Y0280112D01*
X0400334Y0279957D01*
X0400460Y0279799D01*
X0400583Y0279638D01*
X0400701Y0279474D01*
X0400816Y0279307D01*
X0400927Y0279138D01*
X0401033Y0278965D01*
X0401135Y0278791D01*
X0401233Y0278614D01*
X0401327Y0278434D01*
X0401416Y0278253D01*
X0401501Y0278069D01*
X0401581Y0277883D01*
X0401657Y0277695D01*
X0401729Y0277506D01*
X0401795Y0277315D01*
X0401857Y0277122D01*
X0401915Y0276928D01*
X0401968Y0276733D01*
X0402016Y0276536D01*
X0402059Y0276339D01*
X0402097Y0276140D01*
X0402131Y0275940D01*
X0402160Y0275740D01*
X0402184Y0275539D01*
X0402203Y0275338D01*
X0402217Y0275136D01*
X0402217Y0179781D01*
X0402203Y0179579D01*
X0402184Y0179378D01*
X0402160Y0179177D01*
X0402131Y0178977D01*
X0402097Y0178777D01*
X0402059Y0178578D01*
X0402016Y0178381D01*
X0401968Y0178184D01*
X0401915Y0177989D01*
X0401857Y0177795D01*
X0401795Y0177602D01*
X0401729Y0177411D01*
X0401657Y0177222D01*
X0401581Y0177034D01*
X0401501Y0176848D01*
X0401416Y0176664D01*
X0401327Y0176483D01*
X0401233Y0176303D01*
X0401135Y0176126D01*
X0401033Y0175952D01*
X0400927Y0175779D01*
X0400816Y0175610D01*
X0400701Y0175443D01*
X0400583Y0175279D01*
X0400460Y0175118D01*
X0400334Y0174960D01*
X0400204Y0174805D01*
X0400070Y0174653D01*
X0399933Y0174505D01*
X0399791Y0174359D01*
X0399647Y0174218D01*
X0399499Y0174080D01*
X0399348Y0173945D01*
X0399194Y0173814D01*
X0399036Y0173687D01*
X0398875Y0173564D01*
X0398712Y0173445D01*
X0398546Y0173329D01*
X0398377Y0173218D01*
X0398205Y0173111D01*
X0398031Y0173008D01*
X0397854Y0172909D01*
X0397675Y0172814D01*
X0397494Y0172724D01*
X0397311Y0172639D01*
X0397125Y0172557D01*
X0396938Y0172481D01*
X0396749Y0172408D01*
X0396558Y0172341D01*
X0396366Y0172278D01*
X0396172Y0172220D01*
X0395977Y0172166D01*
X0395780Y0172117D01*
X0395583Y0172073D01*
X0395384Y0172034D01*
X0395185Y0171999D01*
X0394985Y0171969D01*
X0394784Y0171945D01*
X0394582Y0171925D01*
X0394381Y0171909D01*
X0394179Y0171899D01*
X0393976Y0171894D01*
X0393774Y0171893D01*
X0393572Y0171898D01*
X0393369Y0171907D01*
X0353999Y0171907D01*
X0353826Y0171855D01*
X0353654Y0171799D01*
X0353483Y0171739D01*
X0353314Y0171675D01*
X0353146Y0171606D01*
X0352981Y0171533D01*
X0352817Y0171456D01*
X0352654Y0171376D01*
X0352494Y0171291D01*
X0352336Y0171203D01*
X0352181Y0171110D01*
X0352027Y0171014D01*
X0351876Y0170914D01*
X0351728Y0170810D01*
X0351582Y0170703D01*
X0351439Y0170592D01*
X0351298Y0170478D01*
X0351161Y0170361D01*
X0351026Y0170240D01*
X0350894Y0170115D01*
X0350765Y0169988D01*
X0350640Y0169857D01*
X0350518Y0169724D01*
X0350399Y0169587D01*
X0350283Y0169448D01*
X0350171Y0169306D01*
X0350062Y0169161D01*
X0349957Y0169013D01*
X0349856Y0168863D01*
X0349758Y0168711D01*
X0349664Y0168556D01*
X0349574Y0168399D01*
X0349488Y0168240D01*
X0349406Y0168079D01*
X0349328Y0167915D01*
X0349253Y0167750D01*
X0349183Y0167583D01*
X0349117Y0167415D01*
X0349055Y0167245D01*
X0348997Y0167073D01*
X0348944Y0166900D01*
X0348894Y0166726D01*
X0348849Y0166550D01*
X0348809Y0166374D01*
X0348772Y0166197D01*
X0348740Y0166018D01*
X0348712Y0165839D01*
X0348689Y0165660D01*
X0348670Y0165480D01*
X0348656Y0165299D01*
X0348646Y0165118D01*
X0348640Y0164937D01*
X0348639Y0164756D01*
X0348642Y0164575D01*
X0348650Y0164394D01*
X0348662Y0164214D01*
X0348679Y0164034D01*
X0348679Y0164033D02*
X0348679Y0126191D01*
X0348678Y0126190D02*
X0348645Y0125970D01*
X0348606Y0125750D01*
X0348562Y0125531D01*
X0348512Y0125313D01*
X0348458Y0125097D01*
X0348398Y0124882D01*
X0348333Y0124668D01*
X0348263Y0124456D01*
X0348187Y0124246D01*
X0348107Y0124038D01*
X0348022Y0123831D01*
X0347931Y0123627D01*
X0347836Y0123425D01*
X0347736Y0123226D01*
X0347631Y0123029D01*
X0347521Y0122834D01*
X0347407Y0122642D01*
X0347288Y0122453D01*
X0347165Y0122267D01*
X0347037Y0122084D01*
X0346905Y0121904D01*
X0346768Y0121728D01*
X0346627Y0121554D01*
X0346482Y0121385D01*
X0346333Y0121218D01*
X0346180Y0121056D01*
X0346024Y0120897D01*
X0345863Y0120742D01*
X0345699Y0120591D01*
X0345531Y0120444D01*
X0345359Y0120301D01*
X0345184Y0120162D01*
X0345006Y0120027D01*
X0344825Y0119897D01*
X0344640Y0119771D01*
X0344453Y0119650D01*
X0344263Y0119533D01*
X0344069Y0119421D01*
X0343874Y0119314D01*
X0343675Y0119211D01*
X0343475Y0119113D01*
X0343272Y0119020D01*
X0343066Y0118932D01*
X0342859Y0118849D01*
X0342650Y0118771D01*
X0342439Y0118699D01*
X0342226Y0118631D01*
X0342012Y0118568D01*
X0341796Y0118511D01*
X0341579Y0118459D01*
X0341361Y0118412D01*
X0341142Y0118370D01*
X0340921Y0118334D01*
X0340700Y0118303D01*
X0340478Y0118277D01*
X0340256Y0118257D01*
X0340033Y0118242D01*
X0339810Y0118232D01*
X0339587Y0118228D01*
X0339364Y0118229D01*
X0339141Y0118236D01*
X0338918Y0118248D01*
X0338695Y0118266D01*
X0338473Y0118288D01*
X0338251Y0118317D01*
X0306755Y0118317D01*
X0306470Y0118357D01*
X0306183Y0118390D01*
X0305896Y0118416D01*
X0305609Y0118435D01*
X0305320Y0118446D01*
X0305032Y0118451D01*
X0304744Y0118448D01*
X0304456Y0118439D01*
X0304168Y0118422D01*
X0303881Y0118399D01*
X0303594Y0118368D01*
X0303308Y0118331D01*
X0303023Y0118286D01*
X0302740Y0118234D01*
X0302457Y0118176D01*
X0302176Y0118111D01*
X0301897Y0118038D01*
X0301620Y0117959D01*
X0301345Y0117873D01*
X0301072Y0117781D01*
X0300801Y0117682D01*
X0300533Y0117576D01*
X0300267Y0117463D01*
X0300005Y0117344D01*
X0299745Y0117219D01*
X0299489Y0117088D01*
X0299235Y0116950D01*
X0298985Y0116806D01*
X0298739Y0116656D01*
X0298497Y0116500D01*
X0298258Y0116338D01*
X0298024Y0116170D01*
X0297793Y0115997D01*
X0297567Y0115818D01*
X0297346Y0115633D01*
X0297129Y0115444D01*
X0296917Y0115248D01*
X0296709Y0115048D01*
X0296507Y0114843D01*
X0296309Y0114633D01*
X0296117Y0114418D01*
X0295930Y0114198D01*
X0295749Y0113974D01*
X0295573Y0113746D01*
X0295403Y0113513D01*
X0295238Y0113276D01*
X0295080Y0113036D01*
X0294927Y0112791D01*
X0294780Y0112543D01*
X0294640Y0112291D01*
X0294506Y0112036D01*
X0294378Y0111778D01*
X0294256Y0111516D01*
X0294141Y0111252D01*
X0294032Y0110985D01*
X0293930Y0110715D01*
X0293834Y0110443D01*
X0293835Y0110443D02*
X0293835Y0072600D01*
X0293798Y0072376D01*
X0293756Y0072153D01*
X0293708Y0071931D01*
X0293655Y0071710D01*
X0293597Y0071491D01*
X0293533Y0071273D01*
X0293464Y0071057D01*
X0293390Y0070842D01*
X0293311Y0070629D01*
X0293227Y0070419D01*
X0293137Y0070210D01*
X0293043Y0070003D01*
X0292944Y0069799D01*
X0292839Y0069598D01*
X0292730Y0069399D01*
X0292616Y0069202D01*
X0292498Y0069009D01*
X0292374Y0068818D01*
X0292246Y0068630D01*
X0292114Y0068446D01*
X0291977Y0068265D01*
X0291836Y0068087D01*
X0291691Y0067912D01*
X0291541Y0067741D01*
X0291388Y0067574D01*
X0291230Y0067411D01*
X0291069Y0067251D01*
X0290903Y0067096D01*
X0290734Y0066944D01*
X0290562Y0066797D01*
X0290386Y0066653D01*
X0290206Y0066515D01*
X0290023Y0066380D01*
X0289837Y0066250D01*
X0289648Y0066124D01*
X0289456Y0066003D01*
X0289261Y0065887D01*
X0289063Y0065776D01*
X0288863Y0065669D01*
X0288660Y0065567D01*
X0288454Y0065470D01*
X0288247Y0065378D01*
X0288037Y0065291D01*
X0287825Y0065209D01*
X0287612Y0065133D01*
X0287396Y0065061D01*
X0287179Y0064995D01*
X0286960Y0064934D01*
X0286740Y0064879D01*
X0286519Y0064828D01*
X0286296Y0064783D01*
X0286073Y0064744D01*
X0285848Y0064710D01*
X0285623Y0064681D01*
X0285397Y0064658D01*
X0285171Y0064640D01*
X0284944Y0064627D01*
X0284717Y0064621D01*
X0284490Y0064619D01*
X0284263Y0064623D01*
X0284036Y0064633D01*
X0283810Y0064648D01*
X0283584Y0064669D01*
X0283358Y0064695D01*
X0283133Y0064726D01*
X0244253Y0064726D01*
X0244253Y0064725D02*
X0244037Y0064696D01*
X0243821Y0064662D01*
X0243606Y0064622D01*
X0243392Y0064577D01*
X0243179Y0064527D01*
X0242968Y0064472D01*
X0242758Y0064411D01*
X0242549Y0064346D01*
X0242342Y0064276D01*
X0242137Y0064200D01*
X0241934Y0064120D01*
X0241732Y0064035D01*
X0241533Y0063945D01*
X0241336Y0063850D01*
X0241142Y0063751D01*
X0240949Y0063646D01*
X0240760Y0063538D01*
X0240573Y0063424D01*
X0240389Y0063306D01*
X0240208Y0063184D01*
X0240030Y0063058D01*
X0239854Y0062927D01*
X0239683Y0062792D01*
X0239514Y0062652D01*
X0239349Y0062509D01*
X0239187Y0062362D01*
X0239029Y0062211D01*
X0238875Y0062056D01*
X0238724Y0061898D01*
X0238578Y0061736D01*
X0238435Y0061570D01*
X0238296Y0061401D01*
X0238162Y0061229D01*
X0238031Y0061054D01*
X0237905Y0060875D01*
X0237784Y0060693D01*
X0237666Y0060509D01*
X0237554Y0060322D01*
X0237445Y0060132D01*
X0237342Y0059939D01*
X0237243Y0059745D01*
X0237149Y0059547D01*
X0237059Y0059348D01*
X0236975Y0059146D01*
X0236895Y0058943D01*
X0236820Y0058737D01*
X0236751Y0058530D01*
X0236686Y0058321D01*
X0236626Y0058111D01*
X0236572Y0057899D01*
X0236522Y0057687D01*
X0236478Y0057472D01*
X0236439Y0057257D01*
X0236405Y0057041D01*
X0236376Y0056825D01*
X0236353Y0056607D01*
X0236335Y0056390D01*
X0236322Y0056171D01*
X0236314Y0055953D01*
X0236312Y0055734D01*
X0236315Y0055516D01*
X0236323Y0055297D01*
X0236337Y0055079D01*
X0236356Y0054862D01*
X0236380Y0054644D01*
X0236379Y0054645D02*
X0236379Y0015275D01*
X0236380Y0015275D02*
X0236364Y0015098D01*
X0236344Y0014922D01*
X0236320Y0014746D01*
X0236291Y0014571D01*
X0236259Y0014397D01*
X0236222Y0014224D01*
X0236181Y0014051D01*
X0236136Y0013880D01*
X0236086Y0013710D01*
X0236033Y0013541D01*
X0235975Y0013373D01*
X0235914Y0013207D01*
X0235848Y0013042D01*
X0235779Y0012879D01*
X0235706Y0012718D01*
X0235628Y0012558D01*
X0235547Y0012400D01*
X0235462Y0012245D01*
X0235374Y0012091D01*
X0235281Y0011940D01*
X0235185Y0011791D01*
X0235086Y0011644D01*
X0234983Y0011500D01*
X0234876Y0011358D01*
X0234767Y0011219D01*
X0234653Y0011083D01*
X0234537Y0010949D01*
X0234417Y0010818D01*
X0234294Y0010691D01*
X0234169Y0010566D01*
X0234040Y0010444D01*
X0233908Y0010325D01*
X0233774Y0010210D01*
X0233636Y0010098D01*
X0233496Y0009989D01*
X0233354Y0009884D01*
X0233209Y0009782D01*
X0233061Y0009684D01*
X0232911Y0009589D01*
X0232759Y0009498D01*
X0232605Y0009410D01*
X0232449Y0009327D01*
X0232291Y0009247D01*
X0232130Y0009171D01*
X0231969Y0009099D01*
X0231805Y0009031D01*
X0231640Y0008966D01*
X0231473Y0008906D01*
X0231305Y0008850D01*
X0231135Y0008798D01*
X0230965Y0008750D01*
X0230793Y0008706D01*
X0230620Y0008667D01*
X0230447Y0008631D01*
X0230272Y0008600D01*
X0230097Y0008573D01*
X0229921Y0008550D01*
X0229745Y0008531D01*
X0229568Y0008517D01*
X0229391Y0008507D01*
X0229214Y0008501D01*
X0229037Y0008500D01*
X0228860Y0008503D01*
X0228682Y0008510D01*
X0228506Y0008521D01*
X0228505Y0008521D02*
X0180771Y0008521D01*
X0180598Y0008541D01*
X0180426Y0008565D01*
X0180255Y0008593D01*
X0180085Y0008625D01*
X0179915Y0008661D01*
X0179746Y0008701D01*
X0179578Y0008746D01*
X0179411Y0008794D01*
X0179246Y0008846D01*
X0179082Y0008903D01*
X0178919Y0008963D01*
X0178758Y0009028D01*
X0178598Y0009096D01*
X0178440Y0009168D01*
X0178284Y0009244D01*
X0178130Y0009323D01*
X0177978Y0009406D01*
X0177827Y0009493D01*
X0177679Y0009584D01*
X0177533Y0009678D01*
X0177390Y0009776D01*
X0177249Y0009877D01*
X0177110Y0009981D01*
X0176974Y0010089D01*
X0176840Y0010200D01*
X0176710Y0010314D01*
X0176582Y0010431D01*
X0176457Y0010551D01*
X0176334Y0010675D01*
X0176215Y0010801D01*
X0176099Y0010930D01*
X0175986Y0011062D01*
X0175877Y0011197D01*
X0175770Y0011334D01*
X0175667Y0011473D01*
X0175568Y0011616D01*
X0175471Y0011760D01*
X0175379Y0011907D01*
X0175290Y0012056D01*
X0175204Y0012207D01*
X0175123Y0012360D01*
X0175044Y0012515D01*
X0174970Y0012672D01*
X0174900Y0012831D01*
X0174833Y0012991D01*
X0174770Y0013153D01*
X0174712Y0013316D01*
X0174657Y0013481D01*
X0174606Y0013647D01*
X0174559Y0013814D01*
X0174516Y0013982D01*
X0174478Y0014151D01*
X0174443Y0014321D01*
X0174413Y0014492D01*
X0174386Y0014664D01*
X0174364Y0014836D01*
X0174346Y0015009D01*
X0174332Y0015182D01*
X0174323Y0015355D01*
X0174317Y0015529D01*
X0174316Y0015702D01*
X0174319Y0015876D01*
X0174326Y0016049D01*
X0174337Y0016222D01*
X0174353Y0016395D01*
X0174353Y0054645D01*
X0174353Y0054644D02*
X0174377Y0054862D01*
X0174396Y0055079D01*
X0174410Y0055297D01*
X0174418Y0055516D01*
X0174421Y0055734D01*
X0174419Y0055953D01*
X0174411Y0056171D01*
X0174398Y0056390D01*
X0174380Y0056607D01*
X0174357Y0056825D01*
X0174328Y0057041D01*
X0174294Y0057257D01*
X0174255Y0057472D01*
X0174211Y0057687D01*
X0174161Y0057899D01*
X0174107Y0058111D01*
X0174047Y0058321D01*
X0173982Y0058530D01*
X0173913Y0058737D01*
X0173838Y0058943D01*
X0173758Y0059146D01*
X0173674Y0059348D01*
X0173584Y0059547D01*
X0173490Y0059745D01*
X0173391Y0059939D01*
X0173288Y0060132D01*
X0173179Y0060322D01*
X0173067Y0060509D01*
X0172949Y0060693D01*
X0172828Y0060875D01*
X0172702Y0061054D01*
X0172571Y0061229D01*
X0172437Y0061401D01*
X0172298Y0061570D01*
X0172155Y0061736D01*
X0172009Y0061898D01*
X0171858Y0062056D01*
X0171704Y0062211D01*
X0171546Y0062362D01*
X0171384Y0062509D01*
X0171219Y0062652D01*
X0171050Y0062792D01*
X0170879Y0062927D01*
X0170703Y0063058D01*
X0170525Y0063184D01*
X0170344Y0063306D01*
X0170160Y0063424D01*
X0169973Y0063538D01*
X0169784Y0063646D01*
X0169591Y0063751D01*
X0169397Y0063850D01*
X0169200Y0063945D01*
X0169001Y0064035D01*
X0168799Y0064120D01*
X0168596Y0064200D01*
X0168391Y0064276D01*
X0168184Y0064346D01*
X0167975Y0064411D01*
X0167765Y0064472D01*
X0167554Y0064527D01*
X0167341Y0064577D01*
X0167127Y0064622D01*
X0166912Y0064662D01*
X0166696Y0064696D01*
X0166480Y0064725D01*
X0166479Y0064726D02*
X0125653Y0064726D01*
X0125652Y0064727D02*
X0125451Y0064718D01*
X0125250Y0064715D01*
X0125049Y0064717D01*
X0124848Y0064723D01*
X0124647Y0064734D01*
X0124447Y0064750D01*
X0124246Y0064771D01*
X0124047Y0064797D01*
X0123848Y0064827D01*
X0123650Y0064863D01*
X0123453Y0064903D01*
X0123257Y0064948D01*
X0123062Y0064997D01*
X0122868Y0065052D01*
X0122676Y0065111D01*
X0122485Y0065174D01*
X0122295Y0065243D01*
X0122108Y0065315D01*
X0121922Y0065393D01*
X0121738Y0065474D01*
X0121556Y0065560D01*
X0121377Y0065651D01*
X0121199Y0065746D01*
X0121024Y0065845D01*
X0120851Y0065948D01*
X0120681Y0066056D01*
X0120514Y0066167D01*
X0120349Y0066283D01*
X0120187Y0066402D01*
X0120028Y0066526D01*
X0119872Y0066653D01*
X0119720Y0066784D01*
X0119570Y0066918D01*
X0119424Y0067056D01*
X0119281Y0067198D01*
X0119141Y0067343D01*
X0119005Y0067491D01*
X0118873Y0067643D01*
X0118744Y0067798D01*
X0118620Y0067955D01*
X0118499Y0068116D01*
X0118382Y0068280D01*
X0118269Y0068446D01*
X0118160Y0068615D01*
X0118055Y0068787D01*
X0117954Y0068961D01*
X0117858Y0069138D01*
X0117765Y0069317D01*
X0117678Y0069498D01*
X0117594Y0069681D01*
X0117515Y0069866D01*
X0117441Y0070053D01*
X0117371Y0070241D01*
X0117305Y0070432D01*
X0117245Y0070624D01*
X0117189Y0070817D01*
X0117137Y0071011D01*
X0117090Y0071207D01*
X0117049Y0071404D01*
X0117011Y0071602D01*
X0116979Y0071800D01*
X0116951Y0071999D01*
X0116929Y0072199D01*
X0116911Y0072400D01*
X0116898Y0072601D01*
X0174353Y0327419D02*
X0174333Y0327627D01*
X0174308Y0327834D01*
X0174278Y0328040D01*
X0174243Y0328246D01*
X0174203Y0328451D01*
X0174158Y0328654D01*
X0174108Y0328857D01*
X0174053Y0329058D01*
X0173993Y0329258D01*
X0173929Y0329457D01*
X0173860Y0329653D01*
X0173786Y0329849D01*
X0173707Y0330042D01*
X0173624Y0330233D01*
X0173536Y0330422D01*
X0173444Y0330609D01*
X0173347Y0330794D01*
X0173245Y0330976D01*
X0173140Y0331156D01*
X0173029Y0331333D01*
X0172915Y0331508D01*
X0172797Y0331680D01*
X0172674Y0331848D01*
X0172547Y0332014D01*
X0172417Y0332177D01*
X0172282Y0332336D01*
X0172144Y0332493D01*
X0172002Y0332645D01*
X0171856Y0332795D01*
X0171707Y0332940D01*
X0171554Y0333082D01*
X0171398Y0333221D01*
X0171239Y0333355D01*
X0171076Y0333486D01*
X0170910Y0333613D01*
X0170742Y0333735D01*
X0170570Y0333854D01*
X0170395Y0333968D01*
X0170218Y0334078D01*
X0170038Y0334184D01*
X0169856Y0334286D01*
X0169671Y0334383D01*
X0169484Y0334475D01*
X0169295Y0334563D01*
X0169104Y0334646D01*
X0168911Y0334725D01*
X0168716Y0334799D01*
X0168519Y0334868D01*
X0168320Y0334933D01*
X0168121Y0334992D01*
X0167919Y0335047D01*
X0167717Y0335097D01*
X0167513Y0335142D01*
X0167308Y0335182D01*
X0167103Y0335218D01*
X0166896Y0335248D01*
X0166689Y0335273D01*
X0166481Y0335293D01*
X0166273Y0335308D01*
X0166065Y0335318D01*
X0165856Y0335323D01*
X0165648Y0335323D01*
X0165439Y0335318D01*
X0165231Y0335308D01*
X0165023Y0335293D01*
D11*
X0197379Y0220326D02*
X0200662Y0217043D01*
X0197379Y0220326D02*
X0198102Y0221049D01*
X0201385Y0217766D01*
X0200662Y0217043D01*
X0201342Y0217723D02*
X0199982Y0217723D01*
X0199302Y0218403D02*
X0200748Y0218403D01*
X0200068Y0219083D02*
X0198622Y0219083D01*
X0197942Y0219763D02*
X0199388Y0219763D01*
X0198708Y0220443D02*
X0197496Y0220443D01*
X0195987Y0218935D02*
X0199270Y0215652D01*
X0195987Y0218935D02*
X0196710Y0219658D01*
X0199993Y0216375D01*
X0199270Y0215652D01*
X0199950Y0216332D02*
X0198590Y0216332D01*
X0197910Y0217012D02*
X0199356Y0217012D01*
X0198676Y0217692D02*
X0197230Y0217692D01*
X0196550Y0218372D02*
X0197996Y0218372D01*
X0197316Y0219052D02*
X0196104Y0219052D01*
X0194595Y0217543D02*
X0197878Y0214260D01*
X0194595Y0217543D02*
X0195318Y0218266D01*
X0198601Y0214983D01*
X0197878Y0214260D01*
X0198558Y0214940D02*
X0197198Y0214940D01*
X0196518Y0215620D02*
X0197964Y0215620D01*
X0197284Y0216300D02*
X0195838Y0216300D01*
X0195158Y0216980D02*
X0196604Y0216980D01*
X0195924Y0217660D02*
X0194712Y0217660D01*
X0193203Y0216151D02*
X0196486Y0212868D01*
X0193203Y0216151D02*
X0193926Y0216874D01*
X0197209Y0213591D01*
X0196486Y0212868D01*
X0197166Y0213548D02*
X0195806Y0213548D01*
X0195126Y0214228D02*
X0196572Y0214228D01*
X0195892Y0214908D02*
X0194446Y0214908D01*
X0193766Y0215588D02*
X0195212Y0215588D01*
X0194532Y0216268D02*
X0193320Y0216268D01*
X0191811Y0214759D02*
X0195094Y0211476D01*
X0191811Y0214759D02*
X0192534Y0215482D01*
X0195817Y0212199D01*
X0195094Y0211476D01*
X0195774Y0212156D02*
X0194414Y0212156D01*
X0193734Y0212836D02*
X0195180Y0212836D01*
X0194500Y0213516D02*
X0193054Y0213516D01*
X0192374Y0214196D02*
X0193820Y0214196D01*
X0193140Y0214876D02*
X0191928Y0214876D01*
X0190419Y0213367D02*
X0193702Y0210084D01*
X0190419Y0213367D02*
X0191142Y0214090D01*
X0194425Y0210807D01*
X0193702Y0210084D01*
X0194382Y0210764D02*
X0193022Y0210764D01*
X0192342Y0211444D02*
X0193788Y0211444D01*
X0193108Y0212124D02*
X0191662Y0212124D01*
X0190982Y0212804D02*
X0192428Y0212804D01*
X0191748Y0213484D02*
X0190536Y0213484D01*
X0189027Y0211975D02*
X0192310Y0208692D01*
X0189027Y0211975D02*
X0189750Y0212698D01*
X0193033Y0209415D01*
X0192310Y0208692D01*
X0192990Y0209372D02*
X0191630Y0209372D01*
X0190950Y0210052D02*
X0192396Y0210052D01*
X0191716Y0210732D02*
X0190270Y0210732D01*
X0189590Y0211412D02*
X0191036Y0211412D01*
X0190356Y0212092D02*
X0189144Y0212092D01*
X0187635Y0210583D02*
X0190918Y0207300D01*
X0187635Y0210583D02*
X0188358Y0211306D01*
X0191641Y0208023D01*
X0190918Y0207300D01*
X0191598Y0207980D02*
X0190238Y0207980D01*
X0189558Y0208660D02*
X0191004Y0208660D01*
X0190324Y0209340D02*
X0188878Y0209340D01*
X0188198Y0210020D02*
X0189644Y0210020D01*
X0188964Y0210700D02*
X0187752Y0210700D01*
X0186244Y0209191D02*
X0189527Y0205908D01*
X0186244Y0209191D02*
X0186967Y0209914D01*
X0190250Y0206631D01*
X0189527Y0205908D01*
X0190207Y0206588D02*
X0188847Y0206588D01*
X0188167Y0207268D02*
X0189613Y0207268D01*
X0188933Y0207948D02*
X0187487Y0207948D01*
X0186807Y0208628D02*
X0188253Y0208628D01*
X0187573Y0209308D02*
X0186361Y0209308D01*
X0184852Y0207799D02*
X0188135Y0204516D01*
X0184852Y0207799D02*
X0185575Y0208522D01*
X0188858Y0205239D01*
X0188135Y0204516D01*
X0188815Y0205196D02*
X0187455Y0205196D01*
X0186775Y0205876D02*
X0188221Y0205876D01*
X0187541Y0206556D02*
X0186095Y0206556D01*
X0185415Y0207236D02*
X0186861Y0207236D01*
X0186181Y0207916D02*
X0184969Y0207916D01*
X0183460Y0206407D02*
X0186743Y0203124D01*
X0183460Y0206407D02*
X0184183Y0207130D01*
X0187466Y0203847D01*
X0186743Y0203124D01*
X0187423Y0203804D02*
X0186063Y0203804D01*
X0185383Y0204484D02*
X0186829Y0204484D01*
X0186149Y0205164D02*
X0184703Y0205164D01*
X0184023Y0205844D02*
X0185469Y0205844D01*
X0184789Y0206524D02*
X0183577Y0206524D01*
X0182068Y0205015D02*
X0185351Y0201732D01*
X0182068Y0205015D02*
X0182791Y0205738D01*
X0186074Y0202455D01*
X0185351Y0201732D01*
X0186031Y0202412D02*
X0184671Y0202412D01*
X0183991Y0203092D02*
X0185437Y0203092D01*
X0184757Y0203772D02*
X0183311Y0203772D01*
X0182631Y0204452D02*
X0184077Y0204452D01*
X0183397Y0205132D02*
X0182185Y0205132D01*
X0180676Y0203623D02*
X0183959Y0200340D01*
X0180676Y0203623D02*
X0181399Y0204346D01*
X0184682Y0201063D01*
X0183959Y0200340D01*
X0184639Y0201020D02*
X0183279Y0201020D01*
X0182599Y0201700D02*
X0184045Y0201700D01*
X0183365Y0202380D02*
X0181919Y0202380D01*
X0181239Y0203060D02*
X0182685Y0203060D01*
X0182005Y0203740D02*
X0180793Y0203740D01*
X0179284Y0202231D02*
X0182567Y0198948D01*
X0179284Y0202231D02*
X0180007Y0202954D01*
X0183290Y0199671D01*
X0182567Y0198948D01*
X0183247Y0199628D02*
X0181887Y0199628D01*
X0181207Y0200308D02*
X0182653Y0200308D01*
X0181973Y0200988D02*
X0180527Y0200988D01*
X0179847Y0201668D02*
X0181293Y0201668D01*
X0180613Y0202348D02*
X0179401Y0202348D01*
X0177892Y0200839D02*
X0181175Y0197556D01*
X0177892Y0200839D02*
X0178615Y0201562D01*
X0181898Y0198279D01*
X0181175Y0197556D01*
X0181855Y0198236D02*
X0180495Y0198236D01*
X0179815Y0198916D02*
X0181261Y0198916D01*
X0180581Y0199596D02*
X0179135Y0199596D01*
X0178455Y0200276D02*
X0179901Y0200276D01*
X0179221Y0200956D02*
X0178009Y0200956D01*
X0176500Y0199447D02*
X0179783Y0196164D01*
X0176500Y0199447D02*
X0177223Y0200170D01*
X0180506Y0196887D01*
X0179783Y0196164D01*
X0180463Y0196844D02*
X0179103Y0196844D01*
X0178423Y0197524D02*
X0179869Y0197524D01*
X0179189Y0198204D02*
X0177743Y0198204D01*
X0177063Y0198884D02*
X0178509Y0198884D01*
X0177829Y0199564D02*
X0176617Y0199564D01*
X0175108Y0198055D02*
X0178391Y0194772D01*
X0175108Y0198055D02*
X0175831Y0198778D01*
X0179114Y0195495D01*
X0178391Y0194772D01*
X0179071Y0195452D02*
X0177711Y0195452D01*
X0177031Y0196132D02*
X0178477Y0196132D01*
X0177797Y0196812D02*
X0176351Y0196812D01*
X0175671Y0197492D02*
X0177117Y0197492D01*
X0176437Y0198172D02*
X0175225Y0198172D01*
X0173716Y0196663D02*
X0176999Y0193380D01*
X0173716Y0196663D02*
X0174439Y0197386D01*
X0177722Y0194103D01*
X0176999Y0193380D01*
X0177679Y0194060D02*
X0176319Y0194060D01*
X0175639Y0194740D02*
X0177085Y0194740D01*
X0176405Y0195420D02*
X0174959Y0195420D01*
X0174279Y0196100D02*
X0175725Y0196100D01*
X0175045Y0196780D02*
X0173833Y0196780D01*
X0172324Y0195271D02*
X0175607Y0191988D01*
X0172324Y0195271D02*
X0173047Y0195994D01*
X0176330Y0192711D01*
X0175607Y0191988D01*
X0176287Y0192668D02*
X0174927Y0192668D01*
X0174247Y0193348D02*
X0175693Y0193348D01*
X0175013Y0194028D02*
X0173567Y0194028D01*
X0172887Y0194708D02*
X0174333Y0194708D01*
X0173653Y0195388D02*
X0172441Y0195388D01*
X0170932Y0193880D02*
X0174215Y0190597D01*
X0170932Y0193880D02*
X0171655Y0194603D01*
X0174938Y0191320D01*
X0174215Y0190597D01*
X0174895Y0191277D02*
X0173535Y0191277D01*
X0172855Y0191957D02*
X0174301Y0191957D01*
X0173621Y0192637D02*
X0172175Y0192637D01*
X0171495Y0193317D02*
X0172941Y0193317D01*
X0172261Y0193997D02*
X0171049Y0193997D01*
X0169540Y0192488D02*
X0172823Y0189205D01*
X0169540Y0192488D02*
X0170263Y0193211D01*
X0173546Y0189928D01*
X0172823Y0189205D01*
X0173503Y0189885D02*
X0172143Y0189885D01*
X0171463Y0190565D02*
X0172909Y0190565D01*
X0172229Y0191245D02*
X0170783Y0191245D01*
X0170103Y0191925D02*
X0171549Y0191925D01*
X0170869Y0192605D02*
X0169657Y0192605D01*
X0168148Y0191096D02*
X0171431Y0187813D01*
X0168148Y0191096D02*
X0168871Y0191819D01*
X0172154Y0188536D01*
X0171431Y0187813D01*
X0172111Y0188493D02*
X0170751Y0188493D01*
X0170071Y0189173D02*
X0171517Y0189173D01*
X0170837Y0189853D02*
X0169391Y0189853D01*
X0168711Y0190533D02*
X0170157Y0190533D01*
X0169477Y0191213D02*
X0168265Y0191213D01*
X0166756Y0189704D02*
X0170039Y0186421D01*
X0166756Y0189704D02*
X0167479Y0190427D01*
X0170762Y0187144D01*
X0170039Y0186421D01*
X0170719Y0187101D02*
X0169359Y0187101D01*
X0168679Y0187781D02*
X0170125Y0187781D01*
X0169445Y0188461D02*
X0167999Y0188461D01*
X0167319Y0189141D02*
X0168765Y0189141D01*
X0168085Y0189821D02*
X0166873Y0189821D01*
X0165364Y0188312D02*
X0168647Y0185029D01*
X0165364Y0188312D02*
X0166087Y0189035D01*
X0169370Y0185752D01*
X0168647Y0185029D01*
X0169327Y0185709D02*
X0167967Y0185709D01*
X0167287Y0186389D02*
X0168733Y0186389D01*
X0168053Y0187069D02*
X0166607Y0187069D01*
X0165927Y0187749D02*
X0167373Y0187749D01*
X0166693Y0188429D02*
X0165481Y0188429D01*
X0163972Y0186920D02*
X0167255Y0183637D01*
X0163972Y0186920D02*
X0164695Y0187643D01*
X0167978Y0184360D01*
X0167255Y0183637D01*
X0167935Y0184317D02*
X0166575Y0184317D01*
X0165895Y0184997D02*
X0167341Y0184997D01*
X0166661Y0185677D02*
X0165215Y0185677D01*
X0164535Y0186357D02*
X0165981Y0186357D01*
X0165301Y0187037D02*
X0164089Y0187037D01*
X0167978Y0176898D02*
X0164695Y0173615D01*
X0163972Y0174338D01*
X0167255Y0177621D01*
X0167978Y0176898D01*
X0165375Y0174295D02*
X0164015Y0174295D01*
X0164609Y0174975D02*
X0166055Y0174975D01*
X0166735Y0175655D02*
X0165289Y0175655D01*
X0165969Y0176335D02*
X0167415Y0176335D01*
X0167861Y0177015D02*
X0166649Y0177015D01*
X0169370Y0175506D02*
X0166087Y0172223D01*
X0165364Y0172946D01*
X0168647Y0176229D01*
X0169370Y0175506D01*
X0166767Y0172903D02*
X0165407Y0172903D01*
X0166001Y0173583D02*
X0167447Y0173583D01*
X0168127Y0174263D02*
X0166681Y0174263D01*
X0167361Y0174943D02*
X0168807Y0174943D01*
X0169253Y0175623D02*
X0168041Y0175623D01*
X0170762Y0174114D02*
X0167479Y0170831D01*
X0166756Y0171554D01*
X0170039Y0174837D01*
X0170762Y0174114D01*
X0168159Y0171511D02*
X0166799Y0171511D01*
X0167393Y0172191D02*
X0168839Y0172191D01*
X0169519Y0172871D02*
X0168073Y0172871D01*
X0168753Y0173551D02*
X0170199Y0173551D01*
X0170645Y0174231D02*
X0169433Y0174231D01*
X0172154Y0172722D02*
X0168871Y0169439D01*
X0168148Y0170162D01*
X0171431Y0173445D01*
X0172154Y0172722D01*
X0169551Y0170119D02*
X0168191Y0170119D01*
X0168785Y0170799D02*
X0170231Y0170799D01*
X0170911Y0171479D02*
X0169465Y0171479D01*
X0170145Y0172159D02*
X0171591Y0172159D01*
X0172037Y0172839D02*
X0170825Y0172839D01*
X0173546Y0171330D02*
X0170263Y0168047D01*
X0169540Y0168770D01*
X0172823Y0172053D01*
X0173546Y0171330D01*
X0170943Y0168727D02*
X0169583Y0168727D01*
X0170177Y0169407D02*
X0171623Y0169407D01*
X0172303Y0170087D02*
X0170857Y0170087D01*
X0171537Y0170767D02*
X0172983Y0170767D01*
X0173429Y0171447D02*
X0172217Y0171447D01*
X0174938Y0169938D02*
X0171655Y0166655D01*
X0170932Y0167378D01*
X0174215Y0170661D01*
X0174938Y0169938D01*
X0172335Y0167335D02*
X0170975Y0167335D01*
X0171569Y0168015D02*
X0173015Y0168015D01*
X0173695Y0168695D02*
X0172249Y0168695D01*
X0172929Y0169375D02*
X0174375Y0169375D01*
X0174821Y0170055D02*
X0173609Y0170055D01*
X0176330Y0168546D02*
X0173047Y0165263D01*
X0172324Y0165986D01*
X0175607Y0169269D01*
X0176330Y0168546D01*
X0173727Y0165943D02*
X0172367Y0165943D01*
X0172961Y0166623D02*
X0174407Y0166623D01*
X0175087Y0167303D02*
X0173641Y0167303D01*
X0174321Y0167983D02*
X0175767Y0167983D01*
X0176213Y0168663D02*
X0175001Y0168663D01*
X0177722Y0167154D02*
X0174439Y0163871D01*
X0173716Y0164594D01*
X0176999Y0167877D01*
X0177722Y0167154D01*
X0175119Y0164551D02*
X0173759Y0164551D01*
X0174353Y0165231D02*
X0175799Y0165231D01*
X0176479Y0165911D02*
X0175033Y0165911D01*
X0175713Y0166591D02*
X0177159Y0166591D01*
X0177605Y0167271D02*
X0176393Y0167271D01*
X0179114Y0165762D02*
X0175831Y0162479D01*
X0175108Y0163202D01*
X0178391Y0166485D01*
X0179114Y0165762D01*
X0176511Y0163159D02*
X0175151Y0163159D01*
X0175745Y0163839D02*
X0177191Y0163839D01*
X0177871Y0164519D02*
X0176425Y0164519D01*
X0177105Y0165199D02*
X0178551Y0165199D01*
X0178997Y0165879D02*
X0177785Y0165879D01*
X0180506Y0164370D02*
X0177223Y0161087D01*
X0176500Y0161810D01*
X0179783Y0165093D01*
X0180506Y0164370D01*
X0177903Y0161767D02*
X0176543Y0161767D01*
X0177137Y0162447D02*
X0178583Y0162447D01*
X0179263Y0163127D02*
X0177817Y0163127D01*
X0178497Y0163807D02*
X0179943Y0163807D01*
X0180389Y0164487D02*
X0179177Y0164487D01*
X0181898Y0162978D02*
X0178615Y0159695D01*
X0177892Y0160418D01*
X0181175Y0163701D01*
X0181898Y0162978D01*
X0179295Y0160375D02*
X0177935Y0160375D01*
X0178529Y0161055D02*
X0179975Y0161055D01*
X0180655Y0161735D02*
X0179209Y0161735D01*
X0179889Y0162415D02*
X0181335Y0162415D01*
X0181781Y0163095D02*
X0180569Y0163095D01*
X0183290Y0161586D02*
X0180007Y0158303D01*
X0179284Y0159026D01*
X0182567Y0162309D01*
X0183290Y0161586D01*
X0180687Y0158983D02*
X0179327Y0158983D01*
X0179921Y0159663D02*
X0181367Y0159663D01*
X0182047Y0160343D02*
X0180601Y0160343D01*
X0181281Y0161023D02*
X0182727Y0161023D01*
X0183173Y0161703D02*
X0181961Y0161703D01*
X0184682Y0160195D02*
X0181399Y0156912D01*
X0180676Y0157635D01*
X0183959Y0160918D01*
X0184682Y0160195D01*
X0182079Y0157592D02*
X0180719Y0157592D01*
X0181313Y0158272D02*
X0182759Y0158272D01*
X0183439Y0158952D02*
X0181993Y0158952D01*
X0182673Y0159632D02*
X0184119Y0159632D01*
X0184565Y0160312D02*
X0183353Y0160312D01*
X0186074Y0158803D02*
X0182791Y0155520D01*
X0182068Y0156243D01*
X0185351Y0159526D01*
X0186074Y0158803D01*
X0183471Y0156200D02*
X0182111Y0156200D01*
X0182705Y0156880D02*
X0184151Y0156880D01*
X0184831Y0157560D02*
X0183385Y0157560D01*
X0184065Y0158240D02*
X0185511Y0158240D01*
X0185957Y0158920D02*
X0184745Y0158920D01*
X0187466Y0157411D02*
X0184183Y0154128D01*
X0183460Y0154851D01*
X0186743Y0158134D01*
X0187466Y0157411D01*
X0184863Y0154808D02*
X0183503Y0154808D01*
X0184097Y0155488D02*
X0185543Y0155488D01*
X0186223Y0156168D02*
X0184777Y0156168D01*
X0185457Y0156848D02*
X0186903Y0156848D01*
X0187349Y0157528D02*
X0186137Y0157528D01*
X0188858Y0156019D02*
X0185575Y0152736D01*
X0184852Y0153459D01*
X0188135Y0156742D01*
X0188858Y0156019D01*
X0186255Y0153416D02*
X0184895Y0153416D01*
X0185489Y0154096D02*
X0186935Y0154096D01*
X0187615Y0154776D02*
X0186169Y0154776D01*
X0186849Y0155456D02*
X0188295Y0155456D01*
X0188741Y0156136D02*
X0187529Y0156136D01*
X0190250Y0154627D02*
X0186967Y0151344D01*
X0186244Y0152067D01*
X0189527Y0155350D01*
X0190250Y0154627D01*
X0187647Y0152024D02*
X0186287Y0152024D01*
X0186881Y0152704D02*
X0188327Y0152704D01*
X0189007Y0153384D02*
X0187561Y0153384D01*
X0188241Y0154064D02*
X0189687Y0154064D01*
X0190133Y0154744D02*
X0188921Y0154744D01*
X0191641Y0153235D02*
X0188358Y0149952D01*
X0187635Y0150675D01*
X0190918Y0153958D01*
X0191641Y0153235D01*
X0189038Y0150632D02*
X0187678Y0150632D01*
X0188272Y0151312D02*
X0189718Y0151312D01*
X0190398Y0151992D02*
X0188952Y0151992D01*
X0189632Y0152672D02*
X0191078Y0152672D01*
X0191524Y0153352D02*
X0190312Y0153352D01*
X0193033Y0151843D02*
X0189750Y0148560D01*
X0189027Y0149283D01*
X0192310Y0152566D01*
X0193033Y0151843D01*
X0190430Y0149240D02*
X0189070Y0149240D01*
X0189664Y0149920D02*
X0191110Y0149920D01*
X0191790Y0150600D02*
X0190344Y0150600D01*
X0191024Y0151280D02*
X0192470Y0151280D01*
X0192916Y0151960D02*
X0191704Y0151960D01*
X0194425Y0150451D02*
X0191142Y0147168D01*
X0190419Y0147891D01*
X0193702Y0151174D01*
X0194425Y0150451D01*
X0191822Y0147848D02*
X0190462Y0147848D01*
X0191056Y0148528D02*
X0192502Y0148528D01*
X0193182Y0149208D02*
X0191736Y0149208D01*
X0192416Y0149888D02*
X0193862Y0149888D01*
X0194308Y0150568D02*
X0193096Y0150568D01*
X0195817Y0149059D02*
X0192534Y0145776D01*
X0191811Y0146499D01*
X0195094Y0149782D01*
X0195817Y0149059D01*
X0193214Y0146456D02*
X0191854Y0146456D01*
X0192448Y0147136D02*
X0193894Y0147136D01*
X0194574Y0147816D02*
X0193128Y0147816D01*
X0193808Y0148496D02*
X0195254Y0148496D01*
X0195700Y0149176D02*
X0194488Y0149176D01*
X0197209Y0147667D02*
X0193926Y0144384D01*
X0193203Y0145107D01*
X0196486Y0148390D01*
X0197209Y0147667D01*
X0194606Y0145064D02*
X0193246Y0145064D01*
X0193840Y0145744D02*
X0195286Y0145744D01*
X0195966Y0146424D02*
X0194520Y0146424D01*
X0195200Y0147104D02*
X0196646Y0147104D01*
X0197092Y0147784D02*
X0195880Y0147784D01*
X0198601Y0146275D02*
X0195318Y0142992D01*
X0194595Y0143715D01*
X0197878Y0146998D01*
X0198601Y0146275D01*
X0195998Y0143672D02*
X0194638Y0143672D01*
X0195232Y0144352D02*
X0196678Y0144352D01*
X0197358Y0145032D02*
X0195912Y0145032D01*
X0196592Y0145712D02*
X0198038Y0145712D01*
X0198484Y0146392D02*
X0197272Y0146392D01*
X0199993Y0144883D02*
X0196710Y0141600D01*
X0195987Y0142323D01*
X0199270Y0145606D01*
X0199993Y0144883D01*
X0197390Y0142280D02*
X0196030Y0142280D01*
X0196624Y0142960D02*
X0198070Y0142960D01*
X0198750Y0143640D02*
X0197304Y0143640D01*
X0197984Y0144320D02*
X0199430Y0144320D01*
X0199876Y0145000D02*
X0198664Y0145000D01*
X0201385Y0143491D02*
X0198102Y0140208D01*
X0197379Y0140931D01*
X0200662Y0144214D01*
X0201385Y0143491D01*
X0198782Y0140888D02*
X0197422Y0140888D01*
X0198016Y0141568D02*
X0199462Y0141568D01*
X0200142Y0142248D02*
X0198696Y0142248D01*
X0199376Y0142928D02*
X0200822Y0142928D01*
X0201268Y0143608D02*
X0200056Y0143608D01*
X0208124Y0144214D02*
X0211407Y0140931D01*
X0210684Y0140208D01*
X0207401Y0143491D01*
X0208124Y0144214D01*
X0210004Y0140888D02*
X0211364Y0140888D01*
X0210770Y0141568D02*
X0209324Y0141568D01*
X0208644Y0142248D02*
X0210090Y0142248D01*
X0209410Y0142928D02*
X0207964Y0142928D01*
X0207518Y0143608D02*
X0208730Y0143608D01*
X0209516Y0145606D02*
X0212799Y0142323D01*
X0212076Y0141600D01*
X0208793Y0144883D01*
X0209516Y0145606D01*
X0211396Y0142280D02*
X0212756Y0142280D01*
X0212162Y0142960D02*
X0210716Y0142960D01*
X0210036Y0143640D02*
X0211482Y0143640D01*
X0210802Y0144320D02*
X0209356Y0144320D01*
X0208910Y0145000D02*
X0210122Y0145000D01*
X0210908Y0146998D02*
X0214191Y0143715D01*
X0213468Y0142992D01*
X0210185Y0146275D01*
X0210908Y0146998D01*
X0212788Y0143672D02*
X0214148Y0143672D01*
X0213554Y0144352D02*
X0212108Y0144352D01*
X0211428Y0145032D02*
X0212874Y0145032D01*
X0212194Y0145712D02*
X0210748Y0145712D01*
X0210302Y0146392D02*
X0211514Y0146392D01*
X0212300Y0148390D02*
X0215583Y0145107D01*
X0214860Y0144384D01*
X0211577Y0147667D01*
X0212300Y0148390D01*
X0214180Y0145064D02*
X0215540Y0145064D01*
X0214946Y0145744D02*
X0213500Y0145744D01*
X0212820Y0146424D02*
X0214266Y0146424D01*
X0213586Y0147104D02*
X0212140Y0147104D01*
X0211694Y0147784D02*
X0212906Y0147784D01*
X0213692Y0149782D02*
X0216975Y0146499D01*
X0216252Y0145776D01*
X0212969Y0149059D01*
X0213692Y0149782D01*
X0215572Y0146456D02*
X0216932Y0146456D01*
X0216338Y0147136D02*
X0214892Y0147136D01*
X0214212Y0147816D02*
X0215658Y0147816D01*
X0214978Y0148496D02*
X0213532Y0148496D01*
X0213086Y0149176D02*
X0214298Y0149176D01*
X0215084Y0151174D02*
X0218367Y0147891D01*
X0217644Y0147168D01*
X0214361Y0150451D01*
X0215084Y0151174D01*
X0216964Y0147848D02*
X0218324Y0147848D01*
X0217730Y0148528D02*
X0216284Y0148528D01*
X0215604Y0149208D02*
X0217050Y0149208D01*
X0216370Y0149888D02*
X0214924Y0149888D01*
X0214478Y0150568D02*
X0215690Y0150568D01*
X0216476Y0152566D02*
X0219759Y0149283D01*
X0219036Y0148560D01*
X0215753Y0151843D01*
X0216476Y0152566D01*
X0218356Y0149240D02*
X0219716Y0149240D01*
X0219122Y0149920D02*
X0217676Y0149920D01*
X0216996Y0150600D02*
X0218442Y0150600D01*
X0217762Y0151280D02*
X0216316Y0151280D01*
X0215870Y0151960D02*
X0217082Y0151960D01*
X0217868Y0153958D02*
X0221151Y0150675D01*
X0220428Y0149952D01*
X0217145Y0153235D01*
X0217868Y0153958D01*
X0219748Y0150632D02*
X0221108Y0150632D01*
X0220514Y0151312D02*
X0219068Y0151312D01*
X0218388Y0151992D02*
X0219834Y0151992D01*
X0219154Y0152672D02*
X0217708Y0152672D01*
X0217262Y0153352D02*
X0218474Y0153352D01*
X0219260Y0155350D02*
X0222543Y0152067D01*
X0221820Y0151344D01*
X0218537Y0154627D01*
X0219260Y0155350D01*
X0221140Y0152024D02*
X0222500Y0152024D01*
X0221906Y0152704D02*
X0220460Y0152704D01*
X0219780Y0153384D02*
X0221226Y0153384D01*
X0220546Y0154064D02*
X0219100Y0154064D01*
X0218654Y0154744D02*
X0219866Y0154744D01*
X0220652Y0156742D02*
X0223935Y0153459D01*
X0223212Y0152736D01*
X0219929Y0156019D01*
X0220652Y0156742D01*
X0222532Y0153416D02*
X0223892Y0153416D01*
X0223298Y0154096D02*
X0221852Y0154096D01*
X0221172Y0154776D02*
X0222618Y0154776D01*
X0221938Y0155456D02*
X0220492Y0155456D01*
X0220046Y0156136D02*
X0221258Y0156136D01*
X0222044Y0158134D02*
X0225327Y0154851D01*
X0224604Y0154128D01*
X0221321Y0157411D01*
X0222044Y0158134D01*
X0223924Y0154808D02*
X0225284Y0154808D01*
X0224690Y0155488D02*
X0223244Y0155488D01*
X0222564Y0156168D02*
X0224010Y0156168D01*
X0223330Y0156848D02*
X0221884Y0156848D01*
X0221438Y0157528D02*
X0222650Y0157528D01*
X0223435Y0159526D02*
X0226718Y0156243D01*
X0225995Y0155520D01*
X0222712Y0158803D01*
X0223435Y0159526D01*
X0225315Y0156200D02*
X0226675Y0156200D01*
X0226081Y0156880D02*
X0224635Y0156880D01*
X0223955Y0157560D02*
X0225401Y0157560D01*
X0224721Y0158240D02*
X0223275Y0158240D01*
X0222829Y0158920D02*
X0224041Y0158920D01*
X0224827Y0160918D02*
X0228110Y0157635D01*
X0227387Y0156912D01*
X0224104Y0160195D01*
X0224827Y0160918D01*
X0226707Y0157592D02*
X0228067Y0157592D01*
X0227473Y0158272D02*
X0226027Y0158272D01*
X0225347Y0158952D02*
X0226793Y0158952D01*
X0226113Y0159632D02*
X0224667Y0159632D01*
X0224221Y0160312D02*
X0225433Y0160312D01*
X0226219Y0162309D02*
X0229502Y0159026D01*
X0228779Y0158303D01*
X0225496Y0161586D01*
X0226219Y0162309D01*
X0228099Y0158983D02*
X0229459Y0158983D01*
X0228865Y0159663D02*
X0227419Y0159663D01*
X0226739Y0160343D02*
X0228185Y0160343D01*
X0227505Y0161023D02*
X0226059Y0161023D01*
X0225613Y0161703D02*
X0226825Y0161703D01*
X0227611Y0163701D02*
X0230894Y0160418D01*
X0230171Y0159695D01*
X0226888Y0162978D01*
X0227611Y0163701D01*
X0229491Y0160375D02*
X0230851Y0160375D01*
X0230257Y0161055D02*
X0228811Y0161055D01*
X0228131Y0161735D02*
X0229577Y0161735D01*
X0228897Y0162415D02*
X0227451Y0162415D01*
X0227005Y0163095D02*
X0228217Y0163095D01*
X0229003Y0165093D02*
X0232286Y0161810D01*
X0231563Y0161087D01*
X0228280Y0164370D01*
X0229003Y0165093D01*
X0230883Y0161767D02*
X0232243Y0161767D01*
X0231649Y0162447D02*
X0230203Y0162447D01*
X0229523Y0163127D02*
X0230969Y0163127D01*
X0230289Y0163807D02*
X0228843Y0163807D01*
X0228397Y0164487D02*
X0229609Y0164487D01*
X0230395Y0166485D02*
X0233678Y0163202D01*
X0232955Y0162479D01*
X0229672Y0165762D01*
X0230395Y0166485D01*
X0232275Y0163159D02*
X0233635Y0163159D01*
X0233041Y0163839D02*
X0231595Y0163839D01*
X0230915Y0164519D02*
X0232361Y0164519D01*
X0231681Y0165199D02*
X0230235Y0165199D01*
X0229789Y0165879D02*
X0231001Y0165879D01*
X0231787Y0167877D02*
X0235070Y0164594D01*
X0234347Y0163871D01*
X0231064Y0167154D01*
X0231787Y0167877D01*
X0233667Y0164551D02*
X0235027Y0164551D01*
X0234433Y0165231D02*
X0232987Y0165231D01*
X0232307Y0165911D02*
X0233753Y0165911D01*
X0233073Y0166591D02*
X0231627Y0166591D01*
X0231181Y0167271D02*
X0232393Y0167271D01*
X0233179Y0169269D02*
X0236462Y0165986D01*
X0235739Y0165263D01*
X0232456Y0168546D01*
X0233179Y0169269D01*
X0235059Y0165943D02*
X0236419Y0165943D01*
X0235825Y0166623D02*
X0234379Y0166623D01*
X0233699Y0167303D02*
X0235145Y0167303D01*
X0234465Y0167983D02*
X0233019Y0167983D01*
X0232573Y0168663D02*
X0233785Y0168663D01*
X0234571Y0170661D02*
X0237854Y0167378D01*
X0237131Y0166655D01*
X0233848Y0169938D01*
X0234571Y0170661D01*
X0236451Y0167335D02*
X0237811Y0167335D01*
X0237217Y0168015D02*
X0235771Y0168015D01*
X0235091Y0168695D02*
X0236537Y0168695D01*
X0235857Y0169375D02*
X0234411Y0169375D01*
X0233965Y0170055D02*
X0235177Y0170055D01*
X0235963Y0172053D02*
X0239246Y0168770D01*
X0238523Y0168047D01*
X0235240Y0171330D01*
X0235963Y0172053D01*
X0237843Y0168727D02*
X0239203Y0168727D01*
X0238609Y0169407D02*
X0237163Y0169407D01*
X0236483Y0170087D02*
X0237929Y0170087D01*
X0237249Y0170767D02*
X0235803Y0170767D01*
X0235357Y0171447D02*
X0236569Y0171447D01*
X0237355Y0173445D02*
X0240638Y0170162D01*
X0239915Y0169439D01*
X0236632Y0172722D01*
X0237355Y0173445D01*
X0239235Y0170119D02*
X0240595Y0170119D01*
X0240001Y0170799D02*
X0238555Y0170799D01*
X0237875Y0171479D02*
X0239321Y0171479D01*
X0238641Y0172159D02*
X0237195Y0172159D01*
X0236749Y0172839D02*
X0237961Y0172839D01*
X0238747Y0174837D02*
X0242030Y0171554D01*
X0241307Y0170831D01*
X0238024Y0174114D01*
X0238747Y0174837D01*
X0240627Y0171511D02*
X0241987Y0171511D01*
X0241393Y0172191D02*
X0239947Y0172191D01*
X0239267Y0172871D02*
X0240713Y0172871D01*
X0240033Y0173551D02*
X0238587Y0173551D01*
X0238141Y0174231D02*
X0239353Y0174231D01*
X0240139Y0176229D02*
X0243422Y0172946D01*
X0242699Y0172223D01*
X0239416Y0175506D01*
X0240139Y0176229D01*
X0242019Y0172903D02*
X0243379Y0172903D01*
X0242785Y0173583D02*
X0241339Y0173583D01*
X0240659Y0174263D02*
X0242105Y0174263D01*
X0241425Y0174943D02*
X0239979Y0174943D01*
X0239533Y0175623D02*
X0240745Y0175623D01*
X0241531Y0177621D02*
X0244814Y0174338D01*
X0244091Y0173615D01*
X0240808Y0176898D01*
X0241531Y0177621D01*
X0243411Y0174295D02*
X0244771Y0174295D01*
X0244177Y0174975D02*
X0242731Y0174975D01*
X0242051Y0175655D02*
X0243497Y0175655D01*
X0242817Y0176335D02*
X0241371Y0176335D01*
X0240925Y0177015D02*
X0242137Y0177015D01*
X0240808Y0184360D02*
X0244091Y0187643D01*
X0244814Y0186920D01*
X0241531Y0183637D01*
X0240808Y0184360D01*
X0240851Y0184317D02*
X0242211Y0184317D01*
X0242891Y0184997D02*
X0241445Y0184997D01*
X0242125Y0185677D02*
X0243571Y0185677D01*
X0244251Y0186357D02*
X0242805Y0186357D01*
X0243485Y0187037D02*
X0244697Y0187037D01*
X0242699Y0189035D02*
X0239416Y0185752D01*
X0242699Y0189035D02*
X0243422Y0188312D01*
X0240139Y0185029D01*
X0239416Y0185752D01*
X0239459Y0185709D02*
X0240819Y0185709D01*
X0241499Y0186389D02*
X0240053Y0186389D01*
X0240733Y0187069D02*
X0242179Y0187069D01*
X0242859Y0187749D02*
X0241413Y0187749D01*
X0242093Y0188429D02*
X0243305Y0188429D01*
X0241307Y0190427D02*
X0238024Y0187144D01*
X0241307Y0190427D02*
X0242030Y0189704D01*
X0238747Y0186421D01*
X0238024Y0187144D01*
X0238067Y0187101D02*
X0239427Y0187101D01*
X0240107Y0187781D02*
X0238661Y0187781D01*
X0239341Y0188461D02*
X0240787Y0188461D01*
X0241467Y0189141D02*
X0240021Y0189141D01*
X0240701Y0189821D02*
X0241913Y0189821D01*
X0239915Y0191819D02*
X0236632Y0188536D01*
X0239915Y0191819D02*
X0240638Y0191096D01*
X0237355Y0187813D01*
X0236632Y0188536D01*
X0236675Y0188493D02*
X0238035Y0188493D01*
X0238715Y0189173D02*
X0237269Y0189173D01*
X0237949Y0189853D02*
X0239395Y0189853D01*
X0240075Y0190533D02*
X0238629Y0190533D01*
X0239309Y0191213D02*
X0240521Y0191213D01*
X0238523Y0193211D02*
X0235240Y0189928D01*
X0238523Y0193211D02*
X0239246Y0192488D01*
X0235963Y0189205D01*
X0235240Y0189928D01*
X0235283Y0189885D02*
X0236643Y0189885D01*
X0237323Y0190565D02*
X0235877Y0190565D01*
X0236557Y0191245D02*
X0238003Y0191245D01*
X0238683Y0191925D02*
X0237237Y0191925D01*
X0237917Y0192605D02*
X0239129Y0192605D01*
X0237131Y0194603D02*
X0233848Y0191320D01*
X0237131Y0194603D02*
X0237854Y0193880D01*
X0234571Y0190597D01*
X0233848Y0191320D01*
X0233891Y0191277D02*
X0235251Y0191277D01*
X0235931Y0191957D02*
X0234485Y0191957D01*
X0235165Y0192637D02*
X0236611Y0192637D01*
X0237291Y0193317D02*
X0235845Y0193317D01*
X0236525Y0193997D02*
X0237737Y0193997D01*
X0235739Y0195994D02*
X0232456Y0192711D01*
X0235739Y0195994D02*
X0236462Y0195271D01*
X0233179Y0191988D01*
X0232456Y0192711D01*
X0232499Y0192668D02*
X0233859Y0192668D01*
X0234539Y0193348D02*
X0233093Y0193348D01*
X0233773Y0194028D02*
X0235219Y0194028D01*
X0235899Y0194708D02*
X0234453Y0194708D01*
X0235133Y0195388D02*
X0236345Y0195388D01*
X0234347Y0197386D02*
X0231064Y0194103D01*
X0234347Y0197386D02*
X0235070Y0196663D01*
X0231787Y0193380D01*
X0231064Y0194103D01*
X0231107Y0194060D02*
X0232467Y0194060D01*
X0233147Y0194740D02*
X0231701Y0194740D01*
X0232381Y0195420D02*
X0233827Y0195420D01*
X0234507Y0196100D02*
X0233061Y0196100D01*
X0233741Y0196780D02*
X0234953Y0196780D01*
X0232955Y0198778D02*
X0229672Y0195495D01*
X0232955Y0198778D02*
X0233678Y0198055D01*
X0230395Y0194772D01*
X0229672Y0195495D01*
X0229715Y0195452D02*
X0231075Y0195452D01*
X0231755Y0196132D02*
X0230309Y0196132D01*
X0230989Y0196812D02*
X0232435Y0196812D01*
X0233115Y0197492D02*
X0231669Y0197492D01*
X0232349Y0198172D02*
X0233561Y0198172D01*
X0231563Y0200170D02*
X0228280Y0196887D01*
X0231563Y0200170D02*
X0232286Y0199447D01*
X0229003Y0196164D01*
X0228280Y0196887D01*
X0228323Y0196844D02*
X0229683Y0196844D01*
X0230363Y0197524D02*
X0228917Y0197524D01*
X0229597Y0198204D02*
X0231043Y0198204D01*
X0231723Y0198884D02*
X0230277Y0198884D01*
X0230957Y0199564D02*
X0232169Y0199564D01*
X0230171Y0201562D02*
X0226888Y0198279D01*
X0230171Y0201562D02*
X0230894Y0200839D01*
X0227611Y0197556D01*
X0226888Y0198279D01*
X0226931Y0198236D02*
X0228291Y0198236D01*
X0228971Y0198916D02*
X0227525Y0198916D01*
X0228205Y0199596D02*
X0229651Y0199596D01*
X0230331Y0200276D02*
X0228885Y0200276D01*
X0229565Y0200956D02*
X0230777Y0200956D01*
X0228779Y0202954D02*
X0225496Y0199671D01*
X0228779Y0202954D02*
X0229502Y0202231D01*
X0226219Y0198948D01*
X0225496Y0199671D01*
X0225539Y0199628D02*
X0226899Y0199628D01*
X0227579Y0200308D02*
X0226133Y0200308D01*
X0226813Y0200988D02*
X0228259Y0200988D01*
X0228939Y0201668D02*
X0227493Y0201668D01*
X0228173Y0202348D02*
X0229385Y0202348D01*
X0227387Y0204346D02*
X0224104Y0201063D01*
X0227387Y0204346D02*
X0228110Y0203623D01*
X0224827Y0200340D01*
X0224104Y0201063D01*
X0224147Y0201020D02*
X0225507Y0201020D01*
X0226187Y0201700D02*
X0224741Y0201700D01*
X0225421Y0202380D02*
X0226867Y0202380D01*
X0227547Y0203060D02*
X0226101Y0203060D01*
X0226781Y0203740D02*
X0227993Y0203740D01*
X0225995Y0205738D02*
X0222712Y0202455D01*
X0225995Y0205738D02*
X0226718Y0205015D01*
X0223435Y0201732D01*
X0222712Y0202455D01*
X0222755Y0202412D02*
X0224115Y0202412D01*
X0224795Y0203092D02*
X0223349Y0203092D01*
X0224029Y0203772D02*
X0225475Y0203772D01*
X0226155Y0204452D02*
X0224709Y0204452D01*
X0225389Y0205132D02*
X0226601Y0205132D01*
X0224604Y0207130D02*
X0221321Y0203847D01*
X0224604Y0207130D02*
X0225327Y0206407D01*
X0222044Y0203124D01*
X0221321Y0203847D01*
X0221364Y0203804D02*
X0222724Y0203804D01*
X0223404Y0204484D02*
X0221958Y0204484D01*
X0222638Y0205164D02*
X0224084Y0205164D01*
X0224764Y0205844D02*
X0223318Y0205844D01*
X0223998Y0206524D02*
X0225210Y0206524D01*
X0223212Y0208522D02*
X0219929Y0205239D01*
X0223212Y0208522D02*
X0223935Y0207799D01*
X0220652Y0204516D01*
X0219929Y0205239D01*
X0219972Y0205196D02*
X0221332Y0205196D01*
X0222012Y0205876D02*
X0220566Y0205876D01*
X0221246Y0206556D02*
X0222692Y0206556D01*
X0223372Y0207236D02*
X0221926Y0207236D01*
X0222606Y0207916D02*
X0223818Y0207916D01*
X0221820Y0209914D02*
X0218537Y0206631D01*
X0221820Y0209914D02*
X0222543Y0209191D01*
X0219260Y0205908D01*
X0218537Y0206631D01*
X0218580Y0206588D02*
X0219940Y0206588D01*
X0220620Y0207268D02*
X0219174Y0207268D01*
X0219854Y0207948D02*
X0221300Y0207948D01*
X0221980Y0208628D02*
X0220534Y0208628D01*
X0221214Y0209308D02*
X0222426Y0209308D01*
X0220428Y0211306D02*
X0217145Y0208023D01*
X0220428Y0211306D02*
X0221151Y0210583D01*
X0217868Y0207300D01*
X0217145Y0208023D01*
X0217188Y0207980D02*
X0218548Y0207980D01*
X0219228Y0208660D02*
X0217782Y0208660D01*
X0218462Y0209340D02*
X0219908Y0209340D01*
X0220588Y0210020D02*
X0219142Y0210020D01*
X0219822Y0210700D02*
X0221034Y0210700D01*
X0219036Y0212698D02*
X0215753Y0209415D01*
X0219036Y0212698D02*
X0219759Y0211975D01*
X0216476Y0208692D01*
X0215753Y0209415D01*
X0215796Y0209372D02*
X0217156Y0209372D01*
X0217836Y0210052D02*
X0216390Y0210052D01*
X0217070Y0210732D02*
X0218516Y0210732D01*
X0219196Y0211412D02*
X0217750Y0211412D01*
X0218430Y0212092D02*
X0219642Y0212092D01*
X0217644Y0214090D02*
X0214361Y0210807D01*
X0217644Y0214090D02*
X0218367Y0213367D01*
X0215084Y0210084D01*
X0214361Y0210807D01*
X0214404Y0210764D02*
X0215764Y0210764D01*
X0216444Y0211444D02*
X0214998Y0211444D01*
X0215678Y0212124D02*
X0217124Y0212124D01*
X0217804Y0212804D02*
X0216358Y0212804D01*
X0217038Y0213484D02*
X0218250Y0213484D01*
X0216252Y0215482D02*
X0212969Y0212199D01*
X0216252Y0215482D02*
X0216975Y0214759D01*
X0213692Y0211476D01*
X0212969Y0212199D01*
X0213012Y0212156D02*
X0214372Y0212156D01*
X0215052Y0212836D02*
X0213606Y0212836D01*
X0214286Y0213516D02*
X0215732Y0213516D01*
X0216412Y0214196D02*
X0214966Y0214196D01*
X0215646Y0214876D02*
X0216858Y0214876D01*
X0214860Y0216874D02*
X0211577Y0213591D01*
X0214860Y0216874D02*
X0215583Y0216151D01*
X0212300Y0212868D01*
X0211577Y0213591D01*
X0211620Y0213548D02*
X0212980Y0213548D01*
X0213660Y0214228D02*
X0212214Y0214228D01*
X0212894Y0214908D02*
X0214340Y0214908D01*
X0215020Y0215588D02*
X0213574Y0215588D01*
X0214254Y0216268D02*
X0215466Y0216268D01*
X0213468Y0218266D02*
X0210185Y0214983D01*
X0213468Y0218266D02*
X0214191Y0217543D01*
X0210908Y0214260D01*
X0210185Y0214983D01*
X0210228Y0214940D02*
X0211588Y0214940D01*
X0212268Y0215620D02*
X0210822Y0215620D01*
X0211502Y0216300D02*
X0212948Y0216300D01*
X0213628Y0216980D02*
X0212182Y0216980D01*
X0212862Y0217660D02*
X0214074Y0217660D01*
X0212076Y0219658D02*
X0208793Y0216375D01*
X0212076Y0219658D02*
X0212799Y0218935D01*
X0209516Y0215652D01*
X0208793Y0216375D01*
X0208836Y0216332D02*
X0210196Y0216332D01*
X0210876Y0217012D02*
X0209430Y0217012D01*
X0210110Y0217692D02*
X0211556Y0217692D01*
X0212236Y0218372D02*
X0210790Y0218372D01*
X0211470Y0219052D02*
X0212682Y0219052D01*
X0210684Y0221049D02*
X0207401Y0217766D01*
X0210684Y0221049D02*
X0211407Y0220326D01*
X0208124Y0217043D01*
X0207401Y0217766D01*
X0207444Y0217723D02*
X0208804Y0217723D01*
X0209484Y0218403D02*
X0208038Y0218403D01*
X0208718Y0219083D02*
X0210164Y0219083D01*
X0210844Y0219763D02*
X0209398Y0219763D01*
X0210078Y0220443D02*
X0211290Y0220443D01*
D12*
X0214393Y0085235D03*
D13*
X0214393Y0075235D03*
X0204393Y0075235D03*
X0194393Y0075235D03*
X0194393Y0085235D03*
X0204393Y0085235D03*
D14*
X0231463Y0257484D02*
X0243537Y0257484D01*
X0243537Y0252104D01*
X0231463Y0252104D01*
X0231463Y0257484D01*
X0231463Y0254409D02*
X0243537Y0254409D01*
X0243537Y0256714D02*
X0231463Y0256714D01*
X0231463Y0272445D02*
X0243537Y0272445D01*
X0243537Y0267065D01*
X0231463Y0267065D01*
X0231463Y0272445D01*
X0231463Y0269370D02*
X0243537Y0269370D01*
X0243537Y0271675D02*
X0231463Y0271675D01*
D15*
X0307123Y0250115D02*
X0317883Y0250115D01*
X0307123Y0250115D02*
X0307123Y0252875D01*
X0317883Y0252875D01*
X0317883Y0250115D01*
X0317883Y0251954D02*
X0307123Y0251954D01*
X0327123Y0250115D02*
X0337883Y0250115D01*
X0327123Y0250115D02*
X0327123Y0252875D01*
X0337883Y0252875D01*
X0337883Y0250115D01*
X0337883Y0251954D02*
X0327123Y0251954D01*
X0101663Y0250115D02*
X0090903Y0250115D01*
X0090903Y0252875D01*
X0101663Y0252875D01*
X0101663Y0250115D01*
X0101663Y0251954D02*
X0090903Y0251954D01*
X0081663Y0250115D02*
X0070903Y0250115D01*
X0070903Y0252875D01*
X0081663Y0252875D01*
X0081663Y0250115D01*
X0081663Y0251954D02*
X0070903Y0251954D01*
D16*
X0074143Y0227928D02*
X0076769Y0227928D01*
X0074143Y0227928D02*
X0074143Y0230554D01*
X0076769Y0230554D01*
X0076769Y0227928D01*
X0076769Y0229052D02*
X0074143Y0229052D01*
X0074143Y0230176D02*
X0076769Y0230176D01*
X0080049Y0227928D02*
X0082675Y0227928D01*
X0080049Y0227928D02*
X0080049Y0230554D01*
X0082675Y0230554D01*
X0082675Y0227928D01*
X0082675Y0229052D02*
X0080049Y0229052D01*
X0080049Y0230176D02*
X0082675Y0230176D01*
X0310721Y0227875D02*
X0313347Y0227875D01*
X0310721Y0227875D02*
X0310721Y0230501D01*
X0313347Y0230501D01*
X0313347Y0227875D01*
X0313347Y0228999D02*
X0310721Y0228999D01*
X0310721Y0230123D02*
X0313347Y0230123D01*
X0316627Y0227875D02*
X0319253Y0227875D01*
X0316627Y0227875D02*
X0316627Y0230501D01*
X0319253Y0230501D01*
X0319253Y0227875D01*
X0319253Y0228999D02*
X0316627Y0228999D01*
X0316627Y0230123D02*
X0319253Y0230123D01*
D17*
X0319281Y0235333D02*
X0316401Y0235333D01*
X0319281Y0235333D02*
X0319281Y0232453D01*
X0316401Y0232453D01*
X0316401Y0235333D01*
X0316401Y0233172D02*
X0319281Y0233172D01*
X0319281Y0233891D02*
X0316401Y0233891D01*
X0316401Y0234610D02*
X0319281Y0234610D01*
X0319281Y0235329D02*
X0316401Y0235329D01*
X0313572Y0235333D02*
X0310692Y0235333D01*
X0313572Y0235333D02*
X0313572Y0232453D01*
X0310692Y0232453D01*
X0310692Y0235333D01*
X0310692Y0233172D02*
X0313572Y0233172D01*
X0313572Y0233891D02*
X0310692Y0233891D01*
X0310692Y0234610D02*
X0313572Y0234610D01*
X0313572Y0235329D02*
X0310692Y0235329D01*
X0082703Y0235387D02*
X0079823Y0235387D01*
X0082703Y0235387D02*
X0082703Y0232507D01*
X0079823Y0232507D01*
X0079823Y0235387D01*
X0079823Y0233226D02*
X0082703Y0233226D01*
X0082703Y0233945D02*
X0079823Y0233945D01*
X0079823Y0234664D02*
X0082703Y0234664D01*
X0082703Y0235383D02*
X0079823Y0235383D01*
X0076995Y0235387D02*
X0074115Y0235387D01*
X0076995Y0235387D02*
X0076995Y0232507D01*
X0074115Y0232507D01*
X0074115Y0235387D01*
X0074115Y0233226D02*
X0076995Y0233226D01*
X0076995Y0233945D02*
X0074115Y0233945D01*
X0074115Y0234664D02*
X0076995Y0234664D01*
X0076995Y0235383D02*
X0074115Y0235383D01*
D18*
X0191178Y0125287D02*
X0191178Y0120223D01*
X0186900Y0120223D01*
X0186900Y0125287D01*
X0191178Y0125287D01*
X0191178Y0122056D02*
X0186900Y0122056D01*
X0186900Y0123889D02*
X0191178Y0123889D01*
X0191178Y0107964D02*
X0191178Y0102900D01*
X0186900Y0102900D01*
X0186900Y0107964D01*
X0191178Y0107964D01*
X0191178Y0104733D02*
X0186900Y0104733D01*
X0186900Y0106566D02*
X0191178Y0106566D01*
X0221886Y0107964D02*
X0221886Y0102900D01*
X0217608Y0102900D01*
X0217608Y0107964D01*
X0221886Y0107964D01*
X0221886Y0104733D02*
X0217608Y0104733D01*
X0217608Y0106566D02*
X0221886Y0106566D01*
X0221886Y0120223D02*
X0221886Y0125287D01*
X0221886Y0120223D02*
X0217608Y0120223D01*
X0217608Y0125287D01*
X0221886Y0125287D01*
X0221886Y0122056D02*
X0217608Y0122056D01*
X0217608Y0123889D02*
X0221886Y0123889D01*
D19*
X0254611Y0114300D02*
X0259611Y0114300D01*
X0259611Y0106426D02*
X0254611Y0106426D01*
X0254611Y0098552D02*
X0259611Y0098552D01*
X0259611Y0090678D02*
X0254611Y0090678D01*
X0254611Y0082804D02*
X0259611Y0082804D01*
X0259611Y0074930D02*
X0254611Y0074930D01*
X0228015Y0045334D02*
X0228015Y0040334D01*
X0220141Y0040334D02*
X0220141Y0045334D01*
X0212267Y0045334D02*
X0212267Y0040334D01*
X0204393Y0040334D02*
X0204393Y0045334D01*
X0196519Y0045334D02*
X0196519Y0040334D01*
X0188645Y0040334D02*
X0188645Y0045334D01*
X0157943Y0070393D02*
X0152943Y0070393D01*
X0152943Y0078267D02*
X0157943Y0078267D01*
X0157943Y0086141D02*
X0152943Y0086141D01*
X0152943Y0094015D02*
X0157943Y0094015D01*
X0157943Y0101889D02*
X0152943Y0101889D01*
X0152943Y0109763D02*
X0157943Y0109763D01*
X0101025Y0125511D02*
X0096025Y0125511D01*
X0096025Y0133385D02*
X0101025Y0133385D01*
X0101025Y0141259D02*
X0096025Y0141259D01*
X0096025Y0149133D02*
X0101025Y0149133D01*
X0101025Y0157007D02*
X0096025Y0157007D01*
X0096025Y0164881D02*
X0101025Y0164881D01*
X0045402Y0208188D02*
X0040402Y0208188D01*
X0040402Y0216062D02*
X0045402Y0216062D01*
X0045402Y0223936D02*
X0040402Y0223936D01*
X0040402Y0231810D02*
X0045402Y0231810D01*
X0045402Y0239684D02*
X0040402Y0239684D01*
X0040402Y0247558D02*
X0045402Y0247558D01*
X0098094Y0300250D02*
X0098094Y0305250D01*
X0105968Y0305250D02*
X0105968Y0300250D01*
X0113842Y0300250D02*
X0113842Y0305250D01*
X0121716Y0305250D02*
X0121716Y0300250D01*
X0129590Y0300250D02*
X0129590Y0305250D01*
X0137464Y0305250D02*
X0137464Y0300250D01*
X0275259Y0300250D02*
X0275259Y0305250D01*
X0283133Y0305250D02*
X0283133Y0300250D01*
X0291007Y0300250D02*
X0291007Y0305250D01*
X0298881Y0305250D02*
X0298881Y0300250D01*
X0306755Y0300250D02*
X0306755Y0305250D01*
X0314629Y0305250D02*
X0314629Y0300250D01*
X0364921Y0248158D02*
X0369921Y0248158D01*
X0369921Y0240284D02*
X0364921Y0240284D01*
X0364921Y0232410D02*
X0369921Y0232410D01*
X0369921Y0224536D02*
X0364921Y0224536D01*
X0364921Y0216662D02*
X0369921Y0216662D01*
X0369921Y0208788D02*
X0364921Y0208788D01*
X0315161Y0168818D02*
X0310161Y0168818D01*
X0310161Y0160944D02*
X0315161Y0160944D01*
X0315161Y0153070D02*
X0310161Y0153070D01*
X0310161Y0145196D02*
X0315161Y0145196D01*
X0315161Y0137322D02*
X0310161Y0137322D01*
X0310161Y0129448D02*
X0315161Y0129448D01*
D20*
X0207098Y0273097D02*
X0207098Y0277137D01*
X0211138Y0277137D01*
X0211138Y0273097D01*
X0207098Y0273097D01*
X0207098Y0277136D02*
X0211138Y0277136D01*
X0197649Y0277137D02*
X0197649Y0273097D01*
X0197649Y0277137D02*
X0201689Y0277137D01*
X0201689Y0273097D01*
X0197649Y0273097D01*
X0197649Y0277136D02*
X0201689Y0277136D01*
D21*
X0201834Y0263798D03*
X0199275Y0263798D03*
X0204393Y0263798D03*
X0206952Y0263798D03*
X0209511Y0263798D03*
D22*
X0213940Y0264369D03*
X0194846Y0264369D03*
D23*
X0190121Y0273217D03*
X0190121Y0275217D03*
X0190121Y0277217D03*
X0218665Y0277217D03*
X0218665Y0275217D03*
X0218665Y0273217D03*
D24*
X0182143Y0211400D03*
M02*
