%
M48
M72
T01C0.01200
T02C0.02000
T03C0.02362
T04C0.03150
T05C0.04000
%
T01
X126943Y78800
X132343Y108800
X142543Y135200
X128743Y138800
X115543Y143600
X149743Y164600
X156343Y161600
X161743Y165200
X168943Y164600
X169543Y161000
X173143Y152600
X167143Y139400
X167743Y132800
X173743Y131000
X179143Y134000
X188143Y129200
X191143Y135200
X195343Y134600
X202543Y134600
X206143Y124400
X214543Y131600
X218743Y133400
X227743Y135800
X235543Y131000
X225343Y126800
X214543Y113600
X209743Y108200
X198343Y109400
X185143Y113600
X181543Y122600
X180343Y105800
X179143Y96200
X198343Y92000
X207943Y91400
X211543Y96800
X216343Y92600
X218743Y97400
X225943Y110600
X239743Y111800
X237943Y101000
X249943Y90200
X229543Y84800
X252343Y123200
X252343Y141800
X244543Y147200
X245743Y152600
X243943Y155600
X241543Y159800
X233743Y159200
X231343Y154400
X221743Y162800
X203743Y171200
X201343Y159200
X191143Y161600
X185443Y170100
X189743Y172800
X178543Y172200
X177943Y182600
X168943Y197600
X156343Y196400
X150343Y186800
X142543Y191600
X143743Y227600
X148543Y239600
X165943Y237200
X191143Y218000
X194743Y224000
X201943Y243800
X219343Y224000
X229543Y244400
X259543Y225200
X248143Y215000
X253543Y198200
X255943Y183200
X273943Y173600
X287143Y173600
X284743Y186200
X293743Y200000
X304543Y195800
X311743Y200600
X321343Y197600
X317743Y187400
X335143Y165200
X342943Y147200
X336943Y134000
X324943Y134000
X305743Y132200
X296743Y137000
X295543Y147200
X283543Y147800
X290743Y158000
X351943Y193400
X336943Y215600
X387343Y180200
X396943Y198200
X396343Y236000
X390943Y246200
X397543Y250400
X386143Y260000
X376543Y267200
X321943Y319400
X311743Y329000
X338143Y321200
X271543Y318200
X249943Y321200
X270943Y269600
X276343Y263000
X279943Y254000
X264343Y255200
X158143Y316400
X123343Y325400
X90343Y321200
X70543Y320600
X43543Y275600
X26743Y263000
X20143Y269000
X44743Y192800
X26743Y180200
X16543Y186200
X69943Y134000
X76543Y127400
X159343Y144200
X275143Y78200
X288343Y95000
X203743Y17000
T02
X190121Y273217
X190121Y275217
X190121Y277217
X218665Y277217
X218665Y275217
X218665Y273217
T03
X182143Y211400
T04
X155443Y70393
X155443Y78267
X155443Y86141
X155443Y94015
X155443Y101889
X155443Y109763
X98525Y125511
X98525Y133385
X98525Y141259
X98525Y149133
X98525Y157007
X98525Y164881
X42902Y208188
X42902Y216062
X42902Y223936
X42902Y231810
X42902Y239684
X42902Y247558
X98094Y302750
X105968Y302750
X113842Y302750
X121716Y302750
X129590Y302750
X137464Y302750
X194846Y264369
X213940Y264369
X275259Y302750
X283133Y302750
X291007Y302750
X298881Y302750
X306755Y302750
X314629Y302750
X367421Y248158
X367421Y240284
X367421Y232410
X367421Y224536
X367421Y216662
X367421Y208788
X312661Y168818
X312661Y160944
X312661Y153070
X312661Y145196
X312661Y137322
X312661Y129448
X257111Y114300
X257111Y106426
X257111Y98552
X257111Y90678
X257111Y82804
X257111Y74930
X228015Y42834
X220141Y42834
X212267Y42834
X204393Y42834
X196519Y42834
X188645Y42834
T05
X194393Y75235
X204393Y75235
X214393Y75235
X214393Y85235
X204393Y85235
X194393Y85235
M30
