G75*
%MOIN*%
%OFA0B0*%
%FSLAX25Y25*%
%IPPOS*%
%LPD*%
%AMOC8*
5,1,8,0,0,1.08239X$1,22.5*
%
%ADD10C,0.00394*%
%ADD11R,0.06600X0.06600*%
%ADD12OC8,0.06600*%
%ADD13C,0.01481*%
%ADD14C,0.01087*%
%ADD15C,0.00720*%
%ADD16C,0.01361*%
%ADD17C,0.05600*%
%ADD18C,0.05324*%
%ADD19C,0.04600*%
%ADD20R,0.04362X0.04362*%
D10*
X0116898Y0072600D02*
X0116898Y0110443D01*
X0116898Y0110442D02*
X0116906Y0110622D01*
X0116911Y0110802D01*
X0116910Y0110982D01*
X0116906Y0111162D01*
X0116897Y0111342D01*
X0116884Y0111521D01*
X0116866Y0111700D01*
X0116844Y0111879D01*
X0116818Y0112057D01*
X0116787Y0112234D01*
X0116753Y0112411D01*
X0116714Y0112587D01*
X0116670Y0112761D01*
X0116623Y0112935D01*
X0116571Y0113107D01*
X0116515Y0113278D01*
X0116455Y0113448D01*
X0116391Y0113616D01*
X0116323Y0113783D01*
X0116251Y0113948D01*
X0116175Y0114111D01*
X0116095Y0114272D01*
X0116011Y0114431D01*
X0115924Y0114588D01*
X0115832Y0114743D01*
X0115737Y0114896D01*
X0115638Y0115047D01*
X0115536Y0115195D01*
X0115430Y0115340D01*
X0115321Y0115483D01*
X0115208Y0115623D01*
X0115091Y0115760D01*
X0114972Y0115895D01*
X0114849Y0116027D01*
X0114723Y0116155D01*
X0114594Y0116281D01*
X0114462Y0116403D01*
X0114328Y0116522D01*
X0114190Y0116638D01*
X0114050Y0116751D01*
X0113906Y0116860D01*
X0113761Y0116965D01*
X0113612Y0117068D01*
X0113462Y0117166D01*
X0113309Y0117261D01*
X0113154Y0117352D01*
X0112996Y0117439D01*
X0112837Y0117522D01*
X0112675Y0117602D01*
X0112512Y0117678D01*
X0112347Y0117749D01*
X0112180Y0117817D01*
X0112012Y0117881D01*
X0111842Y0117940D01*
X0111671Y0117996D01*
X0111498Y0118047D01*
X0111325Y0118094D01*
X0111150Y0118137D01*
X0110974Y0118175D01*
X0110797Y0118210D01*
X0110620Y0118240D01*
X0110442Y0118266D01*
X0110263Y0118287D01*
X0110084Y0118304D01*
X0109905Y0118317D01*
X0070535Y0118317D01*
X0070534Y0118317D02*
X0070334Y0118312D01*
X0070133Y0118312D01*
X0069932Y0118316D01*
X0069731Y0118326D01*
X0069531Y0118341D01*
X0069331Y0118361D01*
X0069132Y0118385D01*
X0068933Y0118415D01*
X0068735Y0118449D01*
X0068538Y0118488D01*
X0068342Y0118532D01*
X0068148Y0118581D01*
X0067954Y0118634D01*
X0067762Y0118692D01*
X0067571Y0118755D01*
X0067382Y0118823D01*
X0067195Y0118895D01*
X0067009Y0118972D01*
X0066825Y0119053D01*
X0066644Y0119139D01*
X0066464Y0119229D01*
X0066287Y0119324D01*
X0066112Y0119423D01*
X0065940Y0119526D01*
X0065770Y0119634D01*
X0065603Y0119745D01*
X0065439Y0119861D01*
X0065278Y0119980D01*
X0065119Y0120104D01*
X0064964Y0120231D01*
X0064812Y0120362D01*
X0064663Y0120497D01*
X0064518Y0120636D01*
X0064376Y0120778D01*
X0064237Y0120923D01*
X0064102Y0121072D01*
X0063971Y0121224D01*
X0063844Y0121379D01*
X0063720Y0121537D01*
X0063600Y0121699D01*
X0063485Y0121863D01*
X0063373Y0122030D01*
X0063266Y0122199D01*
X0063162Y0122372D01*
X0063063Y0122546D01*
X0062968Y0122723D01*
X0062878Y0122903D01*
X0062792Y0123084D01*
X0062711Y0123268D01*
X0062634Y0123453D01*
X0062562Y0123641D01*
X0062494Y0123830D01*
X0062431Y0124021D01*
X0062372Y0124213D01*
X0062319Y0124406D01*
X0062270Y0124601D01*
X0062226Y0124797D01*
X0062187Y0124994D01*
X0062152Y0125192D01*
X0062123Y0125391D01*
X0062098Y0125590D01*
X0062078Y0125790D01*
X0062064Y0125990D01*
X0062054Y0126191D01*
X0062054Y0164033D01*
X0062054Y0164034D02*
X0062059Y0164217D01*
X0062060Y0164400D01*
X0062056Y0164583D01*
X0062048Y0164766D01*
X0062035Y0164948D01*
X0062018Y0165131D01*
X0061997Y0165313D01*
X0061971Y0165494D01*
X0061941Y0165674D01*
X0061907Y0165854D01*
X0061868Y0166033D01*
X0061825Y0166211D01*
X0061777Y0166388D01*
X0061725Y0166564D01*
X0061670Y0166738D01*
X0061609Y0166911D01*
X0061545Y0167082D01*
X0061477Y0167252D01*
X0061404Y0167420D01*
X0061328Y0167587D01*
X0061247Y0167751D01*
X0061163Y0167914D01*
X0061074Y0168074D01*
X0060982Y0168232D01*
X0060886Y0168388D01*
X0060786Y0168542D01*
X0060683Y0168693D01*
X0060576Y0168841D01*
X0060465Y0168987D01*
X0060351Y0169130D01*
X0060234Y0169271D01*
X0060113Y0169408D01*
X0059988Y0169543D01*
X0059861Y0169674D01*
X0059731Y0169803D01*
X0059597Y0169928D01*
X0059460Y0170050D01*
X0059321Y0170168D01*
X0059179Y0170284D01*
X0059033Y0170395D01*
X0058886Y0170504D01*
X0058735Y0170608D01*
X0058583Y0170709D01*
X0058427Y0170806D01*
X0058270Y0170900D01*
X0058110Y0170989D01*
X0057949Y0171075D01*
X0057785Y0171157D01*
X0057619Y0171235D01*
X0057451Y0171308D01*
X0057282Y0171378D01*
X0057111Y0171444D01*
X0056939Y0171505D01*
X0056765Y0171562D01*
X0056589Y0171615D01*
X0056413Y0171664D01*
X0056235Y0171709D01*
X0056057Y0171749D01*
X0055877Y0171785D01*
X0055697Y0171816D01*
X0055516Y0171843D01*
X0055334Y0171866D01*
X0055152Y0171884D01*
X0054969Y0171898D01*
X0054786Y0171908D01*
X0054787Y0171907D02*
X0015417Y0171907D01*
X0015416Y0171908D02*
X0015235Y0171922D01*
X0015054Y0171941D01*
X0014874Y0171964D01*
X0014695Y0171991D01*
X0014516Y0172023D01*
X0014338Y0172059D01*
X0014161Y0172100D01*
X0013985Y0172145D01*
X0013810Y0172194D01*
X0013636Y0172248D01*
X0013464Y0172305D01*
X0013293Y0172367D01*
X0013124Y0172433D01*
X0012956Y0172504D01*
X0012790Y0172578D01*
X0012627Y0172657D01*
X0012465Y0172739D01*
X0012305Y0172825D01*
X0012147Y0172916D01*
X0011992Y0173010D01*
X0011839Y0173108D01*
X0011688Y0173209D01*
X0011540Y0173314D01*
X0011394Y0173423D01*
X0011252Y0173536D01*
X0011112Y0173652D01*
X0010975Y0173771D01*
X0010841Y0173893D01*
X0010710Y0174019D01*
X0010582Y0174148D01*
X0010457Y0174281D01*
X0010336Y0174416D01*
X0010217Y0174554D01*
X0010103Y0174695D01*
X0009992Y0174838D01*
X0009884Y0174985D01*
X0009780Y0175134D01*
X0009680Y0175285D01*
X0009583Y0175439D01*
X0009491Y0175596D01*
X0009402Y0175754D01*
X0009317Y0175915D01*
X0009236Y0176077D01*
X0009159Y0176242D01*
X0009086Y0176408D01*
X0009017Y0176577D01*
X0008953Y0176746D01*
X0008892Y0176918D01*
X0008836Y0177090D01*
X0008784Y0177265D01*
X0008736Y0177440D01*
X0008693Y0177616D01*
X0008654Y0177794D01*
X0008619Y0177972D01*
X0008589Y0178151D01*
X0008563Y0178331D01*
X0008542Y0178512D01*
X0008525Y0178692D01*
X0008512Y0178874D01*
X0008504Y0179055D01*
X0008500Y0179237D01*
X0008501Y0179419D01*
X0008506Y0179600D01*
X0008516Y0179782D01*
X0008516Y0179781D02*
X0008516Y0275136D01*
X0008516Y0275135D02*
X0008506Y0275314D01*
X0008501Y0275493D01*
X0008500Y0275672D01*
X0008504Y0275851D01*
X0008511Y0276029D01*
X0008523Y0276208D01*
X0008540Y0276386D01*
X0008560Y0276564D01*
X0008585Y0276741D01*
X0008614Y0276917D01*
X0008648Y0277093D01*
X0008685Y0277268D01*
X0008727Y0277442D01*
X0008773Y0277615D01*
X0008823Y0277786D01*
X0008878Y0277957D01*
X0008936Y0278126D01*
X0008999Y0278294D01*
X0009065Y0278460D01*
X0009136Y0278624D01*
X0009211Y0278787D01*
X0009289Y0278947D01*
X0009371Y0279106D01*
X0009457Y0279263D01*
X0009547Y0279418D01*
X0009641Y0279570D01*
X0009738Y0279720D01*
X0009839Y0279868D01*
X0009943Y0280014D01*
X0010051Y0280156D01*
X0010162Y0280296D01*
X0010277Y0280434D01*
X0010395Y0280568D01*
X0010516Y0280700D01*
X0010640Y0280829D01*
X0010768Y0280954D01*
X0010898Y0281077D01*
X0011031Y0281196D01*
X0011167Y0281312D01*
X0011306Y0281425D01*
X0011448Y0281534D01*
X0011592Y0281640D01*
X0011739Y0281743D01*
X0011888Y0281841D01*
X0012039Y0281937D01*
X0012193Y0282028D01*
X0012349Y0282116D01*
X0012507Y0282200D01*
X0012667Y0282280D01*
X0012829Y0282356D01*
X0012992Y0282429D01*
X0013157Y0282497D01*
X0013324Y0282561D01*
X0013493Y0282622D01*
X0013663Y0282678D01*
X0013834Y0282730D01*
X0014006Y0282778D01*
X0014180Y0282822D01*
X0014354Y0282861D01*
X0014530Y0282896D01*
X0014706Y0282928D01*
X0014883Y0282954D01*
X0015060Y0282977D01*
X0015238Y0282995D01*
X0015416Y0283009D01*
X0015417Y0283010D02*
X0052874Y0283010D01*
X0052875Y0283009D02*
X0053065Y0283011D01*
X0053255Y0283018D01*
X0053444Y0283029D01*
X0053634Y0283045D01*
X0053823Y0283065D01*
X0054011Y0283090D01*
X0054199Y0283120D01*
X0054386Y0283154D01*
X0054572Y0283192D01*
X0054757Y0283235D01*
X0054941Y0283283D01*
X0055124Y0283335D01*
X0055306Y0283391D01*
X0055486Y0283452D01*
X0055664Y0283517D01*
X0055841Y0283586D01*
X0056016Y0283660D01*
X0056190Y0283738D01*
X0056361Y0283819D01*
X0056531Y0283906D01*
X0056698Y0283996D01*
X0056863Y0284090D01*
X0057026Y0284188D01*
X0057186Y0284290D01*
X0057344Y0284396D01*
X0057499Y0284506D01*
X0057652Y0284619D01*
X0057802Y0284736D01*
X0057949Y0284857D01*
X0058092Y0284981D01*
X0058233Y0285108D01*
X0058371Y0285239D01*
X0058506Y0285374D01*
X0058637Y0285511D01*
X0058765Y0285652D01*
X0058889Y0285795D01*
X0059010Y0285942D01*
X0059128Y0286091D01*
X0059241Y0286244D01*
X0059351Y0286398D01*
X0059458Y0286556D01*
X0059560Y0286716D01*
X0059659Y0286879D01*
X0059753Y0287044D01*
X0059844Y0287211D01*
X0059930Y0287380D01*
X0060013Y0287551D01*
X0060091Y0287724D01*
X0060165Y0287900D01*
X0060235Y0288076D01*
X0060300Y0288255D01*
X0060361Y0288435D01*
X0060418Y0288616D01*
X0060470Y0288799D01*
X0060518Y0288983D01*
X0060562Y0289168D01*
X0060601Y0289354D01*
X0060635Y0289541D01*
X0060665Y0289728D01*
X0060691Y0289917D01*
X0060711Y0290106D01*
X0060728Y0290295D01*
X0060739Y0290485D01*
X0060746Y0290675D01*
X0060749Y0290865D01*
X0060748Y0290865D02*
X0060748Y0327419D01*
X0060749Y0327419D02*
X0060774Y0327632D01*
X0060805Y0327845D01*
X0060841Y0328056D01*
X0060882Y0328267D01*
X0060928Y0328477D01*
X0060979Y0328685D01*
X0061036Y0328892D01*
X0061097Y0329098D01*
X0061163Y0329302D01*
X0061234Y0329505D01*
X0061310Y0329706D01*
X0061391Y0329904D01*
X0061476Y0330101D01*
X0061567Y0330296D01*
X0061662Y0330488D01*
X0061761Y0330679D01*
X0061865Y0330866D01*
X0061974Y0331051D01*
X0062087Y0331234D01*
X0062205Y0331413D01*
X0062326Y0331590D01*
X0062452Y0331764D01*
X0062582Y0331935D01*
X0062717Y0332102D01*
X0062855Y0332266D01*
X0062997Y0332427D01*
X0063143Y0332584D01*
X0063293Y0332738D01*
X0063446Y0332888D01*
X0063604Y0333034D01*
X0063764Y0333177D01*
X0063928Y0333315D01*
X0064095Y0333450D01*
X0064266Y0333580D01*
X0064439Y0333707D01*
X0064616Y0333829D01*
X0064795Y0333947D01*
X0064977Y0334060D01*
X0065162Y0334169D01*
X0065350Y0334273D01*
X0065540Y0334373D01*
X0065732Y0334469D01*
X0065927Y0334559D01*
X0066123Y0334645D01*
X0066322Y0334726D01*
X0066523Y0334803D01*
X0066725Y0334874D01*
X0066929Y0334941D01*
X0067135Y0335002D01*
X0067342Y0335059D01*
X0067550Y0335110D01*
X0067760Y0335157D01*
X0067970Y0335198D01*
X0068182Y0335234D01*
X0068394Y0335266D01*
X0068607Y0335292D01*
X0068821Y0335313D01*
X0069035Y0335328D01*
X0069249Y0335339D01*
X0069464Y0335344D01*
X0069679Y0335344D01*
X0069893Y0335339D01*
X0070108Y0335329D01*
X0070322Y0335314D01*
X0070535Y0335293D01*
X0165023Y0335293D01*
X0174353Y0327419D02*
X0174353Y0290884D01*
X0174355Y0290693D01*
X0174362Y0290503D01*
X0174374Y0290312D01*
X0174390Y0290122D01*
X0174411Y0289933D01*
X0174436Y0289744D01*
X0174466Y0289555D01*
X0174500Y0289368D01*
X0174539Y0289181D01*
X0174582Y0288995D01*
X0174630Y0288810D01*
X0174683Y0288627D01*
X0174739Y0288445D01*
X0174800Y0288264D01*
X0174866Y0288085D01*
X0174936Y0287908D01*
X0175010Y0287732D01*
X0175088Y0287558D01*
X0175171Y0287386D01*
X0175257Y0287216D01*
X0175348Y0287048D01*
X0175442Y0286883D01*
X0175541Y0286719D01*
X0175644Y0286559D01*
X0175750Y0286400D01*
X0175860Y0286245D01*
X0175974Y0286092D01*
X0176092Y0285942D01*
X0176213Y0285794D01*
X0176338Y0285650D01*
X0176466Y0285509D01*
X0176598Y0285371D01*
X0176733Y0285236D01*
X0176871Y0285104D01*
X0177012Y0284976D01*
X0177156Y0284851D01*
X0177304Y0284730D01*
X0177454Y0284612D01*
X0177607Y0284498D01*
X0177762Y0284388D01*
X0177921Y0284282D01*
X0178081Y0284179D01*
X0178245Y0284080D01*
X0178410Y0283986D01*
X0178578Y0283895D01*
X0178748Y0283809D01*
X0178920Y0283726D01*
X0179094Y0283648D01*
X0179270Y0283574D01*
X0179447Y0283504D01*
X0179626Y0283438D01*
X0179807Y0283377D01*
X0179989Y0283321D01*
X0180172Y0283268D01*
X0180357Y0283220D01*
X0180543Y0283177D01*
X0180730Y0283138D01*
X0180917Y0283104D01*
X0181106Y0283074D01*
X0181295Y0283049D01*
X0181484Y0283028D01*
X0181674Y0283012D01*
X0181865Y0283000D01*
X0182055Y0282993D01*
X0182246Y0282991D01*
X0228015Y0282991D01*
X0228015Y0282990D02*
X0228215Y0282987D01*
X0228414Y0282989D01*
X0228614Y0282995D01*
X0228813Y0283006D01*
X0229012Y0283023D01*
X0229211Y0283044D01*
X0229408Y0283070D01*
X0229606Y0283101D01*
X0229802Y0283136D01*
X0229997Y0283177D01*
X0230192Y0283222D01*
X0230385Y0283272D01*
X0230577Y0283327D01*
X0230767Y0283386D01*
X0230956Y0283450D01*
X0231144Y0283519D01*
X0231330Y0283592D01*
X0231513Y0283670D01*
X0231695Y0283752D01*
X0231875Y0283839D01*
X0232052Y0283930D01*
X0232228Y0284026D01*
X0232401Y0284125D01*
X0232571Y0284229D01*
X0232739Y0284337D01*
X0232904Y0284450D01*
X0233066Y0284566D01*
X0233225Y0284686D01*
X0233382Y0284810D01*
X0233535Y0284938D01*
X0233685Y0285069D01*
X0233832Y0285205D01*
X0233976Y0285343D01*
X0234116Y0285486D01*
X0234252Y0285631D01*
X0234385Y0285780D01*
X0234514Y0285932D01*
X0234640Y0286087D01*
X0234761Y0286246D01*
X0234879Y0286407D01*
X0234992Y0286571D01*
X0235102Y0286738D01*
X0235207Y0286907D01*
X0235309Y0287079D01*
X0235406Y0287254D01*
X0235498Y0287430D01*
X0235587Y0287609D01*
X0235671Y0287791D01*
X0235750Y0287974D01*
X0235825Y0288159D01*
X0235895Y0288345D01*
X0235961Y0288534D01*
X0236022Y0288724D01*
X0236079Y0288915D01*
X0236130Y0289108D01*
X0236177Y0289302D01*
X0236220Y0289497D01*
X0236257Y0289693D01*
X0236290Y0289890D01*
X0236317Y0290088D01*
X0236340Y0290286D01*
X0236358Y0290485D01*
X0236371Y0290684D01*
X0236380Y0290883D01*
X0236379Y0290884D02*
X0236379Y0330235D01*
X0236414Y0330391D01*
X0236454Y0330546D01*
X0236498Y0330700D01*
X0236545Y0330853D01*
X0236595Y0331004D01*
X0236650Y0331155D01*
X0236708Y0331304D01*
X0236770Y0331451D01*
X0236835Y0331597D01*
X0236903Y0331742D01*
X0236976Y0331884D01*
X0237051Y0332025D01*
X0237130Y0332164D01*
X0237212Y0332302D01*
X0237298Y0332437D01*
X0237387Y0332570D01*
X0237479Y0332700D01*
X0237574Y0332829D01*
X0237672Y0332955D01*
X0237774Y0333079D01*
X0237878Y0333200D01*
X0237985Y0333319D01*
X0238095Y0333435D01*
X0238208Y0333549D01*
X0238323Y0333659D01*
X0238441Y0333767D01*
X0238562Y0333872D01*
X0238685Y0333974D01*
X0238811Y0334073D01*
X0238939Y0334169D01*
X0239069Y0334262D01*
X0239201Y0334352D01*
X0239336Y0334438D01*
X0239472Y0334521D01*
X0239611Y0334601D01*
X0239751Y0334677D01*
X0239894Y0334750D01*
X0240038Y0334820D01*
X0240183Y0334886D01*
X0240331Y0334949D01*
X0240479Y0335008D01*
X0240629Y0335063D01*
X0240781Y0335115D01*
X0240933Y0335163D01*
X0241087Y0335207D01*
X0241241Y0335248D01*
X0241397Y0335285D01*
X0241553Y0335318D01*
X0241711Y0335347D01*
X0241869Y0335373D01*
X0242027Y0335394D01*
X0242186Y0335412D01*
X0242345Y0335426D01*
X0242505Y0335436D01*
X0242665Y0335443D01*
X0242825Y0335445D01*
X0242985Y0335444D01*
X0243144Y0335438D01*
X0243304Y0335429D01*
X0243463Y0335416D01*
X0243622Y0335399D01*
X0243781Y0335378D01*
X0243939Y0335354D01*
X0244096Y0335326D01*
X0244253Y0335293D01*
X0342110Y0335293D01*
X0342267Y0335326D01*
X0342424Y0335354D01*
X0342582Y0335378D01*
X0342741Y0335399D01*
X0342900Y0335416D01*
X0343059Y0335429D01*
X0343219Y0335438D01*
X0343378Y0335444D01*
X0343538Y0335445D01*
X0343698Y0335443D01*
X0343858Y0335436D01*
X0344018Y0335426D01*
X0344177Y0335412D01*
X0344336Y0335394D01*
X0344494Y0335373D01*
X0344652Y0335347D01*
X0344810Y0335318D01*
X0344966Y0335285D01*
X0345122Y0335248D01*
X0345276Y0335207D01*
X0345430Y0335163D01*
X0345582Y0335115D01*
X0345734Y0335063D01*
X0345884Y0335008D01*
X0346032Y0334949D01*
X0346180Y0334886D01*
X0346325Y0334820D01*
X0346469Y0334750D01*
X0346612Y0334677D01*
X0346752Y0334601D01*
X0346891Y0334521D01*
X0347027Y0334438D01*
X0347162Y0334352D01*
X0347294Y0334262D01*
X0347424Y0334169D01*
X0347552Y0334073D01*
X0347678Y0333974D01*
X0347801Y0333872D01*
X0347922Y0333767D01*
X0348040Y0333659D01*
X0348155Y0333549D01*
X0348268Y0333435D01*
X0348378Y0333319D01*
X0348485Y0333200D01*
X0348589Y0333079D01*
X0348691Y0332955D01*
X0348789Y0332829D01*
X0348884Y0332700D01*
X0348976Y0332570D01*
X0349065Y0332437D01*
X0349151Y0332302D01*
X0349233Y0332164D01*
X0349312Y0332025D01*
X0349387Y0331884D01*
X0349460Y0331742D01*
X0349528Y0331597D01*
X0349593Y0331451D01*
X0349655Y0331304D01*
X0349713Y0331155D01*
X0349768Y0331004D01*
X0349818Y0330853D01*
X0349865Y0330700D01*
X0349909Y0330546D01*
X0349949Y0330391D01*
X0349984Y0330235D01*
X0349984Y0290865D01*
X0349987Y0290675D01*
X0349994Y0290485D01*
X0350005Y0290295D01*
X0350022Y0290106D01*
X0350042Y0289917D01*
X0350068Y0289728D01*
X0350098Y0289541D01*
X0350132Y0289354D01*
X0350171Y0289168D01*
X0350215Y0288983D01*
X0350263Y0288799D01*
X0350315Y0288616D01*
X0350372Y0288435D01*
X0350433Y0288255D01*
X0350498Y0288076D01*
X0350568Y0287900D01*
X0350642Y0287724D01*
X0350720Y0287551D01*
X0350803Y0287380D01*
X0350889Y0287211D01*
X0350980Y0287044D01*
X0351074Y0286879D01*
X0351173Y0286716D01*
X0351275Y0286556D01*
X0351382Y0286398D01*
X0351492Y0286244D01*
X0351605Y0286091D01*
X0351723Y0285942D01*
X0351844Y0285795D01*
X0351968Y0285652D01*
X0352096Y0285511D01*
X0352227Y0285374D01*
X0352362Y0285239D01*
X0352500Y0285108D01*
X0352641Y0284981D01*
X0352784Y0284857D01*
X0352931Y0284736D01*
X0353081Y0284619D01*
X0353234Y0284506D01*
X0353389Y0284396D01*
X0353547Y0284290D01*
X0353707Y0284188D01*
X0353870Y0284090D01*
X0354035Y0283996D01*
X0354202Y0283906D01*
X0354372Y0283819D01*
X0354543Y0283738D01*
X0354717Y0283660D01*
X0354892Y0283586D01*
X0355069Y0283517D01*
X0355247Y0283452D01*
X0355427Y0283391D01*
X0355609Y0283335D01*
X0355792Y0283283D01*
X0355976Y0283235D01*
X0356161Y0283192D01*
X0356347Y0283154D01*
X0356534Y0283120D01*
X0356722Y0283090D01*
X0356910Y0283065D01*
X0357099Y0283045D01*
X0357289Y0283029D01*
X0357478Y0283018D01*
X0357668Y0283011D01*
X0357858Y0283009D01*
X0357858Y0283010D02*
X0393369Y0283010D01*
X0393572Y0283019D01*
X0393774Y0283024D01*
X0393976Y0283023D01*
X0394179Y0283018D01*
X0394381Y0283008D01*
X0394582Y0282992D01*
X0394784Y0282972D01*
X0394985Y0282948D01*
X0395185Y0282918D01*
X0395384Y0282883D01*
X0395583Y0282844D01*
X0395780Y0282800D01*
X0395977Y0282751D01*
X0396172Y0282697D01*
X0396366Y0282639D01*
X0396558Y0282576D01*
X0396749Y0282509D01*
X0396938Y0282436D01*
X0397125Y0282360D01*
X0397311Y0282278D01*
X0397494Y0282193D01*
X0397675Y0282103D01*
X0397854Y0282008D01*
X0398031Y0281909D01*
X0398205Y0281806D01*
X0398377Y0281699D01*
X0398546Y0281588D01*
X0398712Y0281472D01*
X0398875Y0281353D01*
X0399036Y0281230D01*
X0399194Y0281103D01*
X0399348Y0280972D01*
X0399499Y0280837D01*
X0399647Y0280699D01*
X0399791Y0280558D01*
X0399933Y0280412D01*
X0400070Y0280264D01*
X0400204Y0280112D01*
X0400334Y0279957D01*
X0400460Y0279799D01*
X0400583Y0279638D01*
X0400701Y0279474D01*
X0400816Y0279307D01*
X0400927Y0279138D01*
X0401033Y0278965D01*
X0401135Y0278791D01*
X0401233Y0278614D01*
X0401327Y0278434D01*
X0401416Y0278253D01*
X0401501Y0278069D01*
X0401581Y0277883D01*
X0401657Y0277695D01*
X0401729Y0277506D01*
X0401795Y0277315D01*
X0401857Y0277122D01*
X0401915Y0276928D01*
X0401968Y0276733D01*
X0402016Y0276536D01*
X0402059Y0276339D01*
X0402097Y0276140D01*
X0402131Y0275940D01*
X0402160Y0275740D01*
X0402184Y0275539D01*
X0402203Y0275338D01*
X0402217Y0275136D01*
X0402217Y0179781D01*
X0402203Y0179579D01*
X0402184Y0179378D01*
X0402160Y0179177D01*
X0402131Y0178977D01*
X0402097Y0178777D01*
X0402059Y0178578D01*
X0402016Y0178381D01*
X0401968Y0178184D01*
X0401915Y0177989D01*
X0401857Y0177795D01*
X0401795Y0177602D01*
X0401729Y0177411D01*
X0401657Y0177222D01*
X0401581Y0177034D01*
X0401501Y0176848D01*
X0401416Y0176664D01*
X0401327Y0176483D01*
X0401233Y0176303D01*
X0401135Y0176126D01*
X0401033Y0175952D01*
X0400927Y0175779D01*
X0400816Y0175610D01*
X0400701Y0175443D01*
X0400583Y0175279D01*
X0400460Y0175118D01*
X0400334Y0174960D01*
X0400204Y0174805D01*
X0400070Y0174653D01*
X0399933Y0174505D01*
X0399791Y0174359D01*
X0399647Y0174218D01*
X0399499Y0174080D01*
X0399348Y0173945D01*
X0399194Y0173814D01*
X0399036Y0173687D01*
X0398875Y0173564D01*
X0398712Y0173445D01*
X0398546Y0173329D01*
X0398377Y0173218D01*
X0398205Y0173111D01*
X0398031Y0173008D01*
X0397854Y0172909D01*
X0397675Y0172814D01*
X0397494Y0172724D01*
X0397311Y0172639D01*
X0397125Y0172557D01*
X0396938Y0172481D01*
X0396749Y0172408D01*
X0396558Y0172341D01*
X0396366Y0172278D01*
X0396172Y0172220D01*
X0395977Y0172166D01*
X0395780Y0172117D01*
X0395583Y0172073D01*
X0395384Y0172034D01*
X0395185Y0171999D01*
X0394985Y0171969D01*
X0394784Y0171945D01*
X0394582Y0171925D01*
X0394381Y0171909D01*
X0394179Y0171899D01*
X0393976Y0171894D01*
X0393774Y0171893D01*
X0393572Y0171898D01*
X0393369Y0171907D01*
X0353999Y0171907D01*
X0353826Y0171855D01*
X0353654Y0171799D01*
X0353483Y0171739D01*
X0353314Y0171675D01*
X0353146Y0171606D01*
X0352981Y0171533D01*
X0352817Y0171456D01*
X0352654Y0171376D01*
X0352494Y0171291D01*
X0352336Y0171203D01*
X0352181Y0171110D01*
X0352027Y0171014D01*
X0351876Y0170914D01*
X0351728Y0170810D01*
X0351582Y0170703D01*
X0351439Y0170592D01*
X0351298Y0170478D01*
X0351161Y0170361D01*
X0351026Y0170240D01*
X0350894Y0170115D01*
X0350765Y0169988D01*
X0350640Y0169857D01*
X0350518Y0169724D01*
X0350399Y0169587D01*
X0350283Y0169448D01*
X0350171Y0169306D01*
X0350062Y0169161D01*
X0349957Y0169013D01*
X0349856Y0168863D01*
X0349758Y0168711D01*
X0349664Y0168556D01*
X0349574Y0168399D01*
X0349488Y0168240D01*
X0349406Y0168079D01*
X0349328Y0167915D01*
X0349253Y0167750D01*
X0349183Y0167583D01*
X0349117Y0167415D01*
X0349055Y0167245D01*
X0348997Y0167073D01*
X0348944Y0166900D01*
X0348894Y0166726D01*
X0348849Y0166550D01*
X0348809Y0166374D01*
X0348772Y0166197D01*
X0348740Y0166018D01*
X0348712Y0165839D01*
X0348689Y0165660D01*
X0348670Y0165480D01*
X0348656Y0165299D01*
X0348646Y0165118D01*
X0348640Y0164937D01*
X0348639Y0164756D01*
X0348642Y0164575D01*
X0348650Y0164394D01*
X0348662Y0164214D01*
X0348679Y0164034D01*
X0348679Y0164033D02*
X0348679Y0126191D01*
X0348678Y0126190D02*
X0348645Y0125970D01*
X0348606Y0125750D01*
X0348562Y0125531D01*
X0348512Y0125313D01*
X0348458Y0125097D01*
X0348398Y0124882D01*
X0348333Y0124668D01*
X0348263Y0124456D01*
X0348187Y0124246D01*
X0348107Y0124038D01*
X0348022Y0123831D01*
X0347931Y0123627D01*
X0347836Y0123425D01*
X0347736Y0123226D01*
X0347631Y0123029D01*
X0347521Y0122834D01*
X0347407Y0122642D01*
X0347288Y0122453D01*
X0347165Y0122267D01*
X0347037Y0122084D01*
X0346905Y0121904D01*
X0346768Y0121728D01*
X0346627Y0121554D01*
X0346482Y0121385D01*
X0346333Y0121218D01*
X0346180Y0121056D01*
X0346024Y0120897D01*
X0345863Y0120742D01*
X0345699Y0120591D01*
X0345531Y0120444D01*
X0345359Y0120301D01*
X0345184Y0120162D01*
X0345006Y0120027D01*
X0344825Y0119897D01*
X0344640Y0119771D01*
X0344453Y0119650D01*
X0344263Y0119533D01*
X0344069Y0119421D01*
X0343874Y0119314D01*
X0343675Y0119211D01*
X0343475Y0119113D01*
X0343272Y0119020D01*
X0343066Y0118932D01*
X0342859Y0118849D01*
X0342650Y0118771D01*
X0342439Y0118699D01*
X0342226Y0118631D01*
X0342012Y0118568D01*
X0341796Y0118511D01*
X0341579Y0118459D01*
X0341361Y0118412D01*
X0341142Y0118370D01*
X0340921Y0118334D01*
X0340700Y0118303D01*
X0340478Y0118277D01*
X0340256Y0118257D01*
X0340033Y0118242D01*
X0339810Y0118232D01*
X0339587Y0118228D01*
X0339364Y0118229D01*
X0339141Y0118236D01*
X0338918Y0118248D01*
X0338695Y0118266D01*
X0338473Y0118288D01*
X0338251Y0118317D01*
X0306755Y0118317D01*
X0306470Y0118357D01*
X0306183Y0118390D01*
X0305896Y0118416D01*
X0305609Y0118435D01*
X0305320Y0118446D01*
X0305032Y0118451D01*
X0304744Y0118448D01*
X0304456Y0118439D01*
X0304168Y0118422D01*
X0303881Y0118399D01*
X0303594Y0118368D01*
X0303308Y0118331D01*
X0303023Y0118286D01*
X0302740Y0118234D01*
X0302457Y0118176D01*
X0302176Y0118111D01*
X0301897Y0118038D01*
X0301620Y0117959D01*
X0301345Y0117873D01*
X0301072Y0117781D01*
X0300801Y0117682D01*
X0300533Y0117576D01*
X0300267Y0117463D01*
X0300005Y0117344D01*
X0299745Y0117219D01*
X0299489Y0117088D01*
X0299235Y0116950D01*
X0298985Y0116806D01*
X0298739Y0116656D01*
X0298497Y0116500D01*
X0298258Y0116338D01*
X0298024Y0116170D01*
X0297793Y0115997D01*
X0297567Y0115818D01*
X0297346Y0115633D01*
X0297129Y0115444D01*
X0296917Y0115248D01*
X0296709Y0115048D01*
X0296507Y0114843D01*
X0296309Y0114633D01*
X0296117Y0114418D01*
X0295930Y0114198D01*
X0295749Y0113974D01*
X0295573Y0113746D01*
X0295403Y0113513D01*
X0295238Y0113276D01*
X0295080Y0113036D01*
X0294927Y0112791D01*
X0294780Y0112543D01*
X0294640Y0112291D01*
X0294506Y0112036D01*
X0294378Y0111778D01*
X0294256Y0111516D01*
X0294141Y0111252D01*
X0294032Y0110985D01*
X0293930Y0110715D01*
X0293834Y0110443D01*
X0293835Y0110443D02*
X0293835Y0072600D01*
X0293798Y0072376D01*
X0293756Y0072153D01*
X0293708Y0071931D01*
X0293655Y0071710D01*
X0293597Y0071491D01*
X0293533Y0071273D01*
X0293464Y0071057D01*
X0293390Y0070842D01*
X0293311Y0070629D01*
X0293227Y0070419D01*
X0293137Y0070210D01*
X0293043Y0070003D01*
X0292944Y0069799D01*
X0292839Y0069598D01*
X0292730Y0069399D01*
X0292616Y0069202D01*
X0292498Y0069009D01*
X0292374Y0068818D01*
X0292246Y0068630D01*
X0292114Y0068446D01*
X0291977Y0068265D01*
X0291836Y0068087D01*
X0291691Y0067912D01*
X0291541Y0067741D01*
X0291388Y0067574D01*
X0291230Y0067411D01*
X0291069Y0067251D01*
X0290903Y0067096D01*
X0290734Y0066944D01*
X0290562Y0066797D01*
X0290386Y0066653D01*
X0290206Y0066515D01*
X0290023Y0066380D01*
X0289837Y0066250D01*
X0289648Y0066124D01*
X0289456Y0066003D01*
X0289261Y0065887D01*
X0289063Y0065776D01*
X0288863Y0065669D01*
X0288660Y0065567D01*
X0288454Y0065470D01*
X0288247Y0065378D01*
X0288037Y0065291D01*
X0287825Y0065209D01*
X0287612Y0065133D01*
X0287396Y0065061D01*
X0287179Y0064995D01*
X0286960Y0064934D01*
X0286740Y0064879D01*
X0286519Y0064828D01*
X0286296Y0064783D01*
X0286073Y0064744D01*
X0285848Y0064710D01*
X0285623Y0064681D01*
X0285397Y0064658D01*
X0285171Y0064640D01*
X0284944Y0064627D01*
X0284717Y0064621D01*
X0284490Y0064619D01*
X0284263Y0064623D01*
X0284036Y0064633D01*
X0283810Y0064648D01*
X0283584Y0064669D01*
X0283358Y0064695D01*
X0283133Y0064726D01*
X0244253Y0064726D01*
X0244253Y0064725D02*
X0244037Y0064696D01*
X0243821Y0064662D01*
X0243606Y0064622D01*
X0243392Y0064577D01*
X0243179Y0064527D01*
X0242968Y0064472D01*
X0242758Y0064411D01*
X0242549Y0064346D01*
X0242342Y0064276D01*
X0242137Y0064200D01*
X0241934Y0064120D01*
X0241732Y0064035D01*
X0241533Y0063945D01*
X0241336Y0063850D01*
X0241142Y0063751D01*
X0240949Y0063646D01*
X0240760Y0063538D01*
X0240573Y0063424D01*
X0240389Y0063306D01*
X0240208Y0063184D01*
X0240030Y0063058D01*
X0239854Y0062927D01*
X0239683Y0062792D01*
X0239514Y0062652D01*
X0239349Y0062509D01*
X0239187Y0062362D01*
X0239029Y0062211D01*
X0238875Y0062056D01*
X0238724Y0061898D01*
X0238578Y0061736D01*
X0238435Y0061570D01*
X0238296Y0061401D01*
X0238162Y0061229D01*
X0238031Y0061054D01*
X0237905Y0060875D01*
X0237784Y0060693D01*
X0237666Y0060509D01*
X0237554Y0060322D01*
X0237445Y0060132D01*
X0237342Y0059939D01*
X0237243Y0059745D01*
X0237149Y0059547D01*
X0237059Y0059348D01*
X0236975Y0059146D01*
X0236895Y0058943D01*
X0236820Y0058737D01*
X0236751Y0058530D01*
X0236686Y0058321D01*
X0236626Y0058111D01*
X0236572Y0057899D01*
X0236522Y0057687D01*
X0236478Y0057472D01*
X0236439Y0057257D01*
X0236405Y0057041D01*
X0236376Y0056825D01*
X0236353Y0056607D01*
X0236335Y0056390D01*
X0236322Y0056171D01*
X0236314Y0055953D01*
X0236312Y0055734D01*
X0236315Y0055516D01*
X0236323Y0055297D01*
X0236337Y0055079D01*
X0236356Y0054862D01*
X0236380Y0054644D01*
X0236379Y0054645D02*
X0236379Y0015275D01*
X0236380Y0015275D02*
X0236364Y0015098D01*
X0236344Y0014922D01*
X0236320Y0014746D01*
X0236291Y0014571D01*
X0236259Y0014397D01*
X0236222Y0014224D01*
X0236181Y0014051D01*
X0236136Y0013880D01*
X0236086Y0013710D01*
X0236033Y0013541D01*
X0235975Y0013373D01*
X0235914Y0013207D01*
X0235848Y0013042D01*
X0235779Y0012879D01*
X0235706Y0012718D01*
X0235628Y0012558D01*
X0235547Y0012400D01*
X0235462Y0012245D01*
X0235374Y0012091D01*
X0235281Y0011940D01*
X0235185Y0011791D01*
X0235086Y0011644D01*
X0234983Y0011500D01*
X0234876Y0011358D01*
X0234767Y0011219D01*
X0234653Y0011083D01*
X0234537Y0010949D01*
X0234417Y0010818D01*
X0234294Y0010691D01*
X0234169Y0010566D01*
X0234040Y0010444D01*
X0233908Y0010325D01*
X0233774Y0010210D01*
X0233636Y0010098D01*
X0233496Y0009989D01*
X0233354Y0009884D01*
X0233209Y0009782D01*
X0233061Y0009684D01*
X0232911Y0009589D01*
X0232759Y0009498D01*
X0232605Y0009410D01*
X0232449Y0009327D01*
X0232291Y0009247D01*
X0232130Y0009171D01*
X0231969Y0009099D01*
X0231805Y0009031D01*
X0231640Y0008966D01*
X0231473Y0008906D01*
X0231305Y0008850D01*
X0231135Y0008798D01*
X0230965Y0008750D01*
X0230793Y0008706D01*
X0230620Y0008667D01*
X0230447Y0008631D01*
X0230272Y0008600D01*
X0230097Y0008573D01*
X0229921Y0008550D01*
X0229745Y0008531D01*
X0229568Y0008517D01*
X0229391Y0008507D01*
X0229214Y0008501D01*
X0229037Y0008500D01*
X0228860Y0008503D01*
X0228682Y0008510D01*
X0228506Y0008521D01*
X0228505Y0008521D02*
X0180771Y0008521D01*
X0180598Y0008541D01*
X0180426Y0008565D01*
X0180255Y0008593D01*
X0180085Y0008625D01*
X0179915Y0008661D01*
X0179746Y0008701D01*
X0179578Y0008746D01*
X0179411Y0008794D01*
X0179246Y0008846D01*
X0179082Y0008903D01*
X0178919Y0008963D01*
X0178758Y0009028D01*
X0178598Y0009096D01*
X0178440Y0009168D01*
X0178284Y0009244D01*
X0178130Y0009323D01*
X0177978Y0009406D01*
X0177827Y0009493D01*
X0177679Y0009584D01*
X0177533Y0009678D01*
X0177390Y0009776D01*
X0177249Y0009877D01*
X0177110Y0009981D01*
X0176974Y0010089D01*
X0176840Y0010200D01*
X0176710Y0010314D01*
X0176582Y0010431D01*
X0176457Y0010551D01*
X0176334Y0010675D01*
X0176215Y0010801D01*
X0176099Y0010930D01*
X0175986Y0011062D01*
X0175877Y0011197D01*
X0175770Y0011334D01*
X0175667Y0011473D01*
X0175568Y0011616D01*
X0175471Y0011760D01*
X0175379Y0011907D01*
X0175290Y0012056D01*
X0175204Y0012207D01*
X0175123Y0012360D01*
X0175044Y0012515D01*
X0174970Y0012672D01*
X0174900Y0012831D01*
X0174833Y0012991D01*
X0174770Y0013153D01*
X0174712Y0013316D01*
X0174657Y0013481D01*
X0174606Y0013647D01*
X0174559Y0013814D01*
X0174516Y0013982D01*
X0174478Y0014151D01*
X0174443Y0014321D01*
X0174413Y0014492D01*
X0174386Y0014664D01*
X0174364Y0014836D01*
X0174346Y0015009D01*
X0174332Y0015182D01*
X0174323Y0015355D01*
X0174317Y0015529D01*
X0174316Y0015702D01*
X0174319Y0015876D01*
X0174326Y0016049D01*
X0174337Y0016222D01*
X0174353Y0016395D01*
X0174353Y0054645D01*
X0174353Y0054644D02*
X0174377Y0054862D01*
X0174396Y0055079D01*
X0174410Y0055297D01*
X0174418Y0055516D01*
X0174421Y0055734D01*
X0174419Y0055953D01*
X0174411Y0056171D01*
X0174398Y0056390D01*
X0174380Y0056607D01*
X0174357Y0056825D01*
X0174328Y0057041D01*
X0174294Y0057257D01*
X0174255Y0057472D01*
X0174211Y0057687D01*
X0174161Y0057899D01*
X0174107Y0058111D01*
X0174047Y0058321D01*
X0173982Y0058530D01*
X0173913Y0058737D01*
X0173838Y0058943D01*
X0173758Y0059146D01*
X0173674Y0059348D01*
X0173584Y0059547D01*
X0173490Y0059745D01*
X0173391Y0059939D01*
X0173288Y0060132D01*
X0173179Y0060322D01*
X0173067Y0060509D01*
X0172949Y0060693D01*
X0172828Y0060875D01*
X0172702Y0061054D01*
X0172571Y0061229D01*
X0172437Y0061401D01*
X0172298Y0061570D01*
X0172155Y0061736D01*
X0172009Y0061898D01*
X0171858Y0062056D01*
X0171704Y0062211D01*
X0171546Y0062362D01*
X0171384Y0062509D01*
X0171219Y0062652D01*
X0171050Y0062792D01*
X0170879Y0062927D01*
X0170703Y0063058D01*
X0170525Y0063184D01*
X0170344Y0063306D01*
X0170160Y0063424D01*
X0169973Y0063538D01*
X0169784Y0063646D01*
X0169591Y0063751D01*
X0169397Y0063850D01*
X0169200Y0063945D01*
X0169001Y0064035D01*
X0168799Y0064120D01*
X0168596Y0064200D01*
X0168391Y0064276D01*
X0168184Y0064346D01*
X0167975Y0064411D01*
X0167765Y0064472D01*
X0167554Y0064527D01*
X0167341Y0064577D01*
X0167127Y0064622D01*
X0166912Y0064662D01*
X0166696Y0064696D01*
X0166480Y0064725D01*
X0166479Y0064726D02*
X0125653Y0064726D01*
X0125652Y0064727D02*
X0125451Y0064718D01*
X0125250Y0064715D01*
X0125049Y0064717D01*
X0124848Y0064723D01*
X0124647Y0064734D01*
X0124447Y0064750D01*
X0124246Y0064771D01*
X0124047Y0064797D01*
X0123848Y0064827D01*
X0123650Y0064863D01*
X0123453Y0064903D01*
X0123257Y0064948D01*
X0123062Y0064997D01*
X0122868Y0065052D01*
X0122676Y0065111D01*
X0122485Y0065174D01*
X0122295Y0065243D01*
X0122108Y0065315D01*
X0121922Y0065393D01*
X0121738Y0065474D01*
X0121556Y0065560D01*
X0121377Y0065651D01*
X0121199Y0065746D01*
X0121024Y0065845D01*
X0120851Y0065948D01*
X0120681Y0066056D01*
X0120514Y0066167D01*
X0120349Y0066283D01*
X0120187Y0066402D01*
X0120028Y0066526D01*
X0119872Y0066653D01*
X0119720Y0066784D01*
X0119570Y0066918D01*
X0119424Y0067056D01*
X0119281Y0067198D01*
X0119141Y0067343D01*
X0119005Y0067491D01*
X0118873Y0067643D01*
X0118744Y0067798D01*
X0118620Y0067955D01*
X0118499Y0068116D01*
X0118382Y0068280D01*
X0118269Y0068446D01*
X0118160Y0068615D01*
X0118055Y0068787D01*
X0117954Y0068961D01*
X0117858Y0069138D01*
X0117765Y0069317D01*
X0117678Y0069498D01*
X0117594Y0069681D01*
X0117515Y0069866D01*
X0117441Y0070053D01*
X0117371Y0070241D01*
X0117305Y0070432D01*
X0117245Y0070624D01*
X0117189Y0070817D01*
X0117137Y0071011D01*
X0117090Y0071207D01*
X0117049Y0071404D01*
X0117011Y0071602D01*
X0116979Y0071800D01*
X0116951Y0071999D01*
X0116929Y0072199D01*
X0116911Y0072400D01*
X0116898Y0072601D01*
X0174353Y0327419D02*
X0174333Y0327627D01*
X0174308Y0327834D01*
X0174278Y0328040D01*
X0174243Y0328246D01*
X0174203Y0328451D01*
X0174158Y0328654D01*
X0174108Y0328857D01*
X0174053Y0329058D01*
X0173993Y0329258D01*
X0173929Y0329457D01*
X0173860Y0329653D01*
X0173786Y0329849D01*
X0173707Y0330042D01*
X0173624Y0330233D01*
X0173536Y0330422D01*
X0173444Y0330609D01*
X0173347Y0330794D01*
X0173245Y0330976D01*
X0173140Y0331156D01*
X0173029Y0331333D01*
X0172915Y0331508D01*
X0172797Y0331680D01*
X0172674Y0331848D01*
X0172547Y0332014D01*
X0172417Y0332177D01*
X0172282Y0332336D01*
X0172144Y0332493D01*
X0172002Y0332645D01*
X0171856Y0332795D01*
X0171707Y0332940D01*
X0171554Y0333082D01*
X0171398Y0333221D01*
X0171239Y0333355D01*
X0171076Y0333486D01*
X0170910Y0333613D01*
X0170742Y0333735D01*
X0170570Y0333854D01*
X0170395Y0333968D01*
X0170218Y0334078D01*
X0170038Y0334184D01*
X0169856Y0334286D01*
X0169671Y0334383D01*
X0169484Y0334475D01*
X0169295Y0334563D01*
X0169104Y0334646D01*
X0168911Y0334725D01*
X0168716Y0334799D01*
X0168519Y0334868D01*
X0168320Y0334933D01*
X0168121Y0334992D01*
X0167919Y0335047D01*
X0167717Y0335097D01*
X0167513Y0335142D01*
X0167308Y0335182D01*
X0167103Y0335218D01*
X0166896Y0335248D01*
X0166689Y0335273D01*
X0166481Y0335293D01*
X0166273Y0335308D01*
X0166065Y0335318D01*
X0165856Y0335323D01*
X0165648Y0335323D01*
X0165439Y0335318D01*
X0165231Y0335308D01*
X0165023Y0335293D01*
D11*
X0214393Y0085235D03*
D12*
X0214393Y0075235D03*
X0204393Y0075235D03*
X0194393Y0075235D03*
X0194393Y0085235D03*
X0204393Y0085235D03*
D13*
X0160701Y0146456D02*
X0164531Y0150286D01*
X0165579Y0149238D01*
X0161749Y0145408D01*
X0160701Y0146456D01*
X0161133Y0146888D02*
X0163229Y0146888D01*
X0162613Y0148368D02*
X0164709Y0148368D01*
X0164969Y0149848D02*
X0164093Y0149848D01*
X0157850Y0156967D02*
X0154020Y0153137D01*
X0157850Y0156967D02*
X0158898Y0155919D01*
X0155068Y0152089D01*
X0154020Y0153137D01*
X0154452Y0153569D02*
X0156548Y0153569D01*
X0155932Y0155049D02*
X0158028Y0155049D01*
X0158288Y0156529D02*
X0157412Y0156529D01*
D14*
X0161470Y0153627D02*
X0157361Y0149518D01*
X0161470Y0153627D02*
X0162239Y0152858D01*
X0158130Y0148749D01*
X0157361Y0149518D01*
X0157678Y0149835D02*
X0159216Y0149835D01*
X0158764Y0150921D02*
X0160302Y0150921D01*
X0159850Y0152007D02*
X0161388Y0152007D01*
X0160936Y0153093D02*
X0162004Y0153093D01*
D15*
X0142286Y0158257D02*
X0140250Y0156221D01*
X0142286Y0158257D02*
X0144322Y0156221D01*
X0142286Y0154185D01*
X0140250Y0156221D01*
X0141567Y0154904D02*
X0143005Y0154904D01*
X0143724Y0155623D02*
X0140848Y0155623D01*
X0140371Y0156342D02*
X0144201Y0156342D01*
X0143482Y0157061D02*
X0141090Y0157061D01*
X0141809Y0157780D02*
X0142763Y0157780D01*
X0140703Y0159840D02*
X0138667Y0157804D01*
X0136631Y0159840D01*
X0138667Y0161876D01*
X0140703Y0159840D01*
X0139386Y0158523D02*
X0137948Y0158523D01*
X0137229Y0159242D02*
X0140105Y0159242D01*
X0140582Y0159961D02*
X0136752Y0159961D01*
X0137471Y0160680D02*
X0139863Y0160680D01*
X0139144Y0161399D02*
X0138190Y0161399D01*
X0136666Y0155804D02*
X0134630Y0153768D01*
X0132594Y0155804D01*
X0134630Y0157840D01*
X0136666Y0155804D01*
X0135349Y0154487D02*
X0133911Y0154487D01*
X0133192Y0155206D02*
X0136068Y0155206D01*
X0136545Y0155925D02*
X0132715Y0155925D01*
X0133434Y0156644D02*
X0135826Y0156644D01*
X0135107Y0157363D02*
X0134153Y0157363D01*
X0138249Y0154221D02*
X0136213Y0152185D01*
X0138249Y0154221D02*
X0140285Y0152185D01*
X0138249Y0150149D01*
X0136213Y0152185D01*
X0137530Y0150868D02*
X0138968Y0150868D01*
X0139687Y0151587D02*
X0136811Y0151587D01*
X0136334Y0152306D02*
X0140164Y0152306D01*
X0139445Y0153025D02*
X0137053Y0153025D01*
X0137772Y0153744D02*
X0138726Y0153744D01*
X0170254Y0211001D02*
X0172290Y0213037D01*
X0174326Y0211001D01*
X0172290Y0208965D01*
X0170254Y0211001D01*
X0171571Y0209684D02*
X0173009Y0209684D01*
X0173728Y0210403D02*
X0170852Y0210403D01*
X0170375Y0211122D02*
X0174205Y0211122D01*
X0173486Y0211841D02*
X0171094Y0211841D01*
X0171813Y0212560D02*
X0172767Y0212560D01*
X0174291Y0215038D02*
X0176327Y0217074D01*
X0178363Y0215038D01*
X0176327Y0213002D01*
X0174291Y0215038D01*
X0175608Y0213721D02*
X0177046Y0213721D01*
X0177765Y0214440D02*
X0174889Y0214440D01*
X0174412Y0215159D02*
X0178242Y0215159D01*
X0177523Y0215878D02*
X0175131Y0215878D01*
X0175850Y0216597D02*
X0176804Y0216597D01*
X0172708Y0220693D02*
X0170672Y0218657D01*
X0172708Y0220693D02*
X0174744Y0218657D01*
X0172708Y0216621D01*
X0170672Y0218657D01*
X0171989Y0217340D02*
X0173427Y0217340D01*
X0174146Y0218059D02*
X0171270Y0218059D01*
X0170793Y0218778D02*
X0174623Y0218778D01*
X0173904Y0219497D02*
X0171512Y0219497D01*
X0172231Y0220216D02*
X0173185Y0220216D01*
X0169089Y0224312D02*
X0167053Y0222276D01*
X0169089Y0224312D02*
X0171125Y0222276D01*
X0169089Y0220240D01*
X0167053Y0222276D01*
X0168370Y0220959D02*
X0169808Y0220959D01*
X0170527Y0221678D02*
X0167651Y0221678D01*
X0167174Y0222397D02*
X0171004Y0222397D01*
X0170285Y0223116D02*
X0167893Y0223116D01*
X0168612Y0223835D02*
X0169566Y0223835D01*
X0165052Y0220275D02*
X0163016Y0218239D01*
X0165052Y0220275D02*
X0167088Y0218239D01*
X0165052Y0216203D01*
X0163016Y0218239D01*
X0164333Y0216922D02*
X0165771Y0216922D01*
X0166490Y0217641D02*
X0163614Y0217641D01*
X0163137Y0218360D02*
X0166967Y0218360D01*
X0166248Y0219079D02*
X0163856Y0219079D01*
X0164575Y0219798D02*
X0165529Y0219798D01*
X0168671Y0216656D02*
X0166635Y0214620D01*
X0168671Y0216656D02*
X0170707Y0214620D01*
X0168671Y0212584D01*
X0166635Y0214620D01*
X0167952Y0213303D02*
X0169390Y0213303D01*
X0170109Y0214022D02*
X0167233Y0214022D01*
X0166756Y0214741D02*
X0170586Y0214741D01*
X0169867Y0215460D02*
X0167475Y0215460D01*
X0168194Y0216179D02*
X0169148Y0216179D01*
X0220961Y0227560D02*
X0222997Y0229596D01*
X0225033Y0227560D01*
X0222997Y0225524D01*
X0220961Y0227560D01*
X0222278Y0226243D02*
X0223716Y0226243D01*
X0224435Y0226962D02*
X0221559Y0226962D01*
X0221082Y0227681D02*
X0224912Y0227681D01*
X0224193Y0228400D02*
X0221801Y0228400D01*
X0222520Y0229119D02*
X0223474Y0229119D01*
X0224997Y0231597D02*
X0227033Y0233633D01*
X0229069Y0231597D01*
X0227033Y0229561D01*
X0224997Y0231597D01*
X0226314Y0230280D02*
X0227752Y0230280D01*
X0228471Y0230999D02*
X0225595Y0230999D01*
X0225118Y0231718D02*
X0228948Y0231718D01*
X0228229Y0232437D02*
X0225837Y0232437D01*
X0226556Y0233156D02*
X0227510Y0233156D01*
X0248171Y0138049D02*
X0246135Y0136013D01*
X0244099Y0138049D01*
X0246135Y0140085D01*
X0248171Y0138049D01*
X0246854Y0136732D02*
X0245416Y0136732D01*
X0244697Y0137451D02*
X0247573Y0137451D01*
X0248050Y0138170D02*
X0244220Y0138170D01*
X0244939Y0138889D02*
X0247331Y0138889D01*
X0246612Y0139608D02*
X0245658Y0139608D01*
X0251512Y0134709D02*
X0249476Y0132673D01*
X0247440Y0134709D01*
X0249476Y0136745D01*
X0251512Y0134709D01*
X0250195Y0133392D02*
X0248757Y0133392D01*
X0248038Y0134111D02*
X0250914Y0134111D01*
X0251391Y0134830D02*
X0247561Y0134830D01*
X0248280Y0135549D02*
X0250672Y0135549D01*
X0249953Y0136268D02*
X0248999Y0136268D01*
X0254958Y0131262D02*
X0252922Y0129226D01*
X0250886Y0131262D01*
X0252922Y0133298D01*
X0254958Y0131262D01*
X0253641Y0129945D02*
X0252203Y0129945D01*
X0251484Y0130664D02*
X0254360Y0130664D01*
X0254837Y0131383D02*
X0251007Y0131383D01*
X0251726Y0132102D02*
X0254118Y0132102D01*
X0253399Y0132821D02*
X0252445Y0132821D01*
X0250922Y0127225D02*
X0248886Y0125189D01*
X0246850Y0127225D01*
X0248886Y0129261D01*
X0250922Y0127225D01*
X0249605Y0125908D02*
X0248167Y0125908D01*
X0247448Y0126627D02*
X0250324Y0126627D01*
X0250801Y0127346D02*
X0246971Y0127346D01*
X0247690Y0128065D02*
X0250082Y0128065D01*
X0249363Y0128784D02*
X0248409Y0128784D01*
X0247475Y0130672D02*
X0245439Y0128636D01*
X0243403Y0130672D01*
X0245439Y0132708D01*
X0247475Y0130672D01*
X0246158Y0129355D02*
X0244720Y0129355D01*
X0244001Y0130074D02*
X0246877Y0130074D01*
X0247354Y0130793D02*
X0243524Y0130793D01*
X0244243Y0131512D02*
X0246635Y0131512D01*
X0245916Y0132231D02*
X0244962Y0132231D01*
X0244135Y0134013D02*
X0242099Y0131977D01*
X0240063Y0134013D01*
X0242099Y0136049D01*
X0244135Y0134013D01*
X0242818Y0132696D02*
X0241380Y0132696D01*
X0240661Y0133415D02*
X0243537Y0133415D01*
X0244014Y0134134D02*
X0240184Y0134134D01*
X0240903Y0134853D02*
X0243295Y0134853D01*
X0242576Y0135572D02*
X0241622Y0135572D01*
D16*
X0264146Y0082978D02*
X0269292Y0082978D01*
X0264146Y0082978D02*
X0264146Y0086154D01*
X0269292Y0086154D01*
X0269292Y0082978D01*
X0269292Y0084338D02*
X0264146Y0084338D01*
X0264146Y0085698D02*
X0269292Y0085698D01*
X0269292Y0070379D02*
X0264146Y0070379D01*
X0264146Y0073555D01*
X0269292Y0073555D01*
X0269292Y0070379D01*
X0269292Y0071739D02*
X0264146Y0071739D01*
X0264146Y0073099D02*
X0269292Y0073099D01*
X0283437Y0073555D02*
X0288583Y0073555D01*
X0288583Y0070379D01*
X0283437Y0070379D01*
X0283437Y0073555D01*
X0283437Y0071739D02*
X0288583Y0071739D01*
X0288583Y0073099D02*
X0283437Y0073099D01*
X0283437Y0086154D02*
X0288583Y0086154D01*
X0288583Y0082978D01*
X0283437Y0082978D01*
X0283437Y0086154D01*
X0283437Y0084338D02*
X0288583Y0084338D01*
X0288583Y0085698D02*
X0283437Y0085698D01*
X0320127Y0125498D02*
X0325273Y0125498D01*
X0320127Y0125498D02*
X0320127Y0128674D01*
X0325273Y0128674D01*
X0325273Y0125498D01*
X0325273Y0126858D02*
X0320127Y0126858D01*
X0320127Y0128218D02*
X0325273Y0128218D01*
X0325273Y0138096D02*
X0320127Y0138096D01*
X0320127Y0141272D01*
X0325273Y0141272D01*
X0325273Y0138096D01*
X0325273Y0139456D02*
X0320127Y0139456D01*
X0320127Y0140816D02*
X0325273Y0140816D01*
X0339419Y0141272D02*
X0344565Y0141272D01*
X0344565Y0138096D01*
X0339419Y0138096D01*
X0339419Y0141272D01*
X0339419Y0139456D02*
X0344565Y0139456D01*
X0344565Y0140816D02*
X0339419Y0140816D01*
X0339419Y0128674D02*
X0344565Y0128674D01*
X0344565Y0125498D01*
X0339419Y0125498D01*
X0339419Y0128674D01*
X0339419Y0126858D02*
X0344565Y0126858D01*
X0344565Y0128218D02*
X0339419Y0128218D01*
X0372245Y0178647D02*
X0377391Y0178647D01*
X0372245Y0178647D02*
X0372245Y0181823D01*
X0377391Y0181823D01*
X0377391Y0178647D01*
X0377391Y0180007D02*
X0372245Y0180007D01*
X0372245Y0181367D02*
X0377391Y0181367D01*
X0377391Y0191246D02*
X0372245Y0191246D01*
X0372245Y0194422D01*
X0377391Y0194422D01*
X0377391Y0191246D01*
X0377391Y0192606D02*
X0372245Y0192606D01*
X0372245Y0193966D02*
X0377391Y0193966D01*
X0391537Y0194422D02*
X0396683Y0194422D01*
X0396683Y0191246D01*
X0391537Y0191246D01*
X0391537Y0194422D01*
X0391537Y0192606D02*
X0396683Y0192606D01*
X0396683Y0193966D02*
X0391537Y0193966D01*
X0391537Y0181823D02*
X0396683Y0181823D01*
X0396683Y0178647D01*
X0391537Y0178647D01*
X0391537Y0181823D01*
X0391537Y0180007D02*
X0396683Y0180007D01*
X0396683Y0181367D02*
X0391537Y0181367D01*
X0391537Y0262532D02*
X0396683Y0262532D01*
X0396683Y0259356D01*
X0391537Y0259356D01*
X0391537Y0262532D01*
X0391537Y0260716D02*
X0396683Y0260716D01*
X0396683Y0262076D02*
X0391537Y0262076D01*
X0391537Y0275130D02*
X0396683Y0275130D01*
X0396683Y0271954D01*
X0391537Y0271954D01*
X0391537Y0275130D01*
X0391537Y0273314D02*
X0396683Y0273314D01*
X0396683Y0274674D02*
X0391537Y0274674D01*
X0377391Y0271954D02*
X0372245Y0271954D01*
X0372245Y0275130D01*
X0377391Y0275130D01*
X0377391Y0271954D01*
X0377391Y0273314D02*
X0372245Y0273314D01*
X0372245Y0274674D02*
X0377391Y0274674D01*
X0377391Y0259356D02*
X0372245Y0259356D01*
X0372245Y0262532D01*
X0377391Y0262532D01*
X0377391Y0259356D01*
X0377391Y0260716D02*
X0372245Y0260716D01*
X0372245Y0262076D02*
X0377391Y0262076D01*
X0344565Y0315681D02*
X0339419Y0315681D01*
X0344565Y0315681D02*
X0344565Y0312505D01*
X0339419Y0312505D01*
X0339419Y0315681D01*
X0339419Y0313865D02*
X0344565Y0313865D01*
X0344565Y0315225D02*
X0339419Y0315225D01*
X0339419Y0328280D02*
X0344565Y0328280D01*
X0344565Y0325104D01*
X0339419Y0325104D01*
X0339419Y0328280D01*
X0339419Y0326464D02*
X0344565Y0326464D01*
X0344565Y0327824D02*
X0339419Y0327824D01*
X0325273Y0325104D02*
X0320127Y0325104D01*
X0320127Y0328280D01*
X0325273Y0328280D01*
X0325273Y0325104D01*
X0325273Y0326464D02*
X0320127Y0326464D01*
X0320127Y0327824D02*
X0325273Y0327824D01*
X0325273Y0312505D02*
X0320127Y0312505D01*
X0320127Y0315681D01*
X0325273Y0315681D01*
X0325273Y0312505D01*
X0325273Y0313865D02*
X0320127Y0313865D01*
X0320127Y0315225D02*
X0325273Y0315225D01*
X0268056Y0316281D02*
X0262910Y0316281D01*
X0268056Y0316281D02*
X0268056Y0313105D01*
X0262910Y0313105D01*
X0262910Y0316281D01*
X0262910Y0314465D02*
X0268056Y0314465D01*
X0268056Y0315825D02*
X0262910Y0315825D01*
X0262910Y0328880D02*
X0268056Y0328880D01*
X0268056Y0325704D01*
X0262910Y0325704D01*
X0262910Y0328880D01*
X0262910Y0327064D02*
X0268056Y0327064D01*
X0268056Y0328424D02*
X0262910Y0328424D01*
X0248765Y0325704D02*
X0243619Y0325704D01*
X0243619Y0328880D01*
X0248765Y0328880D01*
X0248765Y0325704D01*
X0248765Y0327064D02*
X0243619Y0327064D01*
X0243619Y0328424D02*
X0248765Y0328424D01*
X0248765Y0313105D02*
X0243619Y0313105D01*
X0243619Y0316281D01*
X0248765Y0316281D01*
X0248765Y0313105D01*
X0248765Y0314465D02*
X0243619Y0314465D01*
X0243619Y0315825D02*
X0248765Y0315825D01*
X0216612Y0257414D02*
X0211466Y0257414D01*
X0216612Y0257414D02*
X0216612Y0254238D01*
X0211466Y0254238D01*
X0211466Y0257414D01*
X0211466Y0255598D02*
X0216612Y0255598D01*
X0216612Y0256958D02*
X0211466Y0256958D01*
X0211466Y0244815D02*
X0216612Y0244815D01*
X0216612Y0241639D01*
X0211466Y0241639D01*
X0211466Y0244815D01*
X0211466Y0242999D02*
X0216612Y0242999D01*
X0216612Y0244359D02*
X0211466Y0244359D01*
X0197320Y0241639D02*
X0192174Y0241639D01*
X0192174Y0244815D01*
X0197320Y0244815D01*
X0197320Y0241639D01*
X0197320Y0242999D02*
X0192174Y0242999D01*
X0192174Y0244359D02*
X0197320Y0244359D01*
X0197320Y0254238D02*
X0192174Y0254238D01*
X0192174Y0257414D01*
X0197320Y0257414D01*
X0197320Y0254238D01*
X0197320Y0255598D02*
X0192174Y0255598D01*
X0192174Y0256958D02*
X0197320Y0256958D01*
X0171336Y0315681D02*
X0166190Y0315681D01*
X0171336Y0315681D02*
X0171336Y0312505D01*
X0166190Y0312505D01*
X0166190Y0315681D01*
X0166190Y0313865D02*
X0171336Y0313865D01*
X0171336Y0315225D02*
X0166190Y0315225D01*
X0166190Y0328280D02*
X0171336Y0328280D01*
X0171336Y0325104D01*
X0166190Y0325104D01*
X0166190Y0328280D01*
X0166190Y0326464D02*
X0171336Y0326464D01*
X0171336Y0327824D02*
X0166190Y0327824D01*
X0152045Y0325104D02*
X0146899Y0325104D01*
X0146899Y0328280D01*
X0152045Y0328280D01*
X0152045Y0325104D01*
X0152045Y0326464D02*
X0146899Y0326464D01*
X0146899Y0327824D02*
X0152045Y0327824D01*
X0152045Y0312505D02*
X0146899Y0312505D01*
X0146899Y0315681D01*
X0152045Y0315681D01*
X0152045Y0312505D01*
X0152045Y0313865D02*
X0146899Y0313865D01*
X0146899Y0315225D02*
X0152045Y0315225D01*
X0092259Y0315681D02*
X0087113Y0315681D01*
X0092259Y0315681D02*
X0092259Y0312505D01*
X0087113Y0312505D01*
X0087113Y0315681D01*
X0087113Y0313865D02*
X0092259Y0313865D01*
X0092259Y0315225D02*
X0087113Y0315225D01*
X0087113Y0328280D02*
X0092259Y0328280D01*
X0092259Y0325104D01*
X0087113Y0325104D01*
X0087113Y0328280D01*
X0087113Y0326464D02*
X0092259Y0326464D01*
X0092259Y0327824D02*
X0087113Y0327824D01*
X0072968Y0325104D02*
X0067822Y0325104D01*
X0067822Y0328280D01*
X0072968Y0328280D01*
X0072968Y0325104D01*
X0072968Y0326464D02*
X0067822Y0326464D01*
X0067822Y0327824D02*
X0072968Y0327824D01*
X0072968Y0312505D02*
X0067822Y0312505D01*
X0067822Y0315681D01*
X0072968Y0315681D01*
X0072968Y0312505D01*
X0072968Y0313865D02*
X0067822Y0313865D01*
X0067822Y0315225D02*
X0072968Y0315225D01*
X0040909Y0277099D02*
X0035763Y0277099D01*
X0040909Y0277099D02*
X0040909Y0273923D01*
X0035763Y0273923D01*
X0035763Y0277099D01*
X0035763Y0275283D02*
X0040909Y0275283D01*
X0040909Y0276643D02*
X0035763Y0276643D01*
X0035763Y0264500D02*
X0040909Y0264500D01*
X0040909Y0261324D01*
X0035763Y0261324D01*
X0035763Y0264500D01*
X0035763Y0262684D02*
X0040909Y0262684D01*
X0040909Y0264044D02*
X0035763Y0264044D01*
X0021618Y0261324D02*
X0016472Y0261324D01*
X0016472Y0264500D01*
X0021618Y0264500D01*
X0021618Y0261324D01*
X0021618Y0262684D02*
X0016472Y0262684D01*
X0016472Y0264044D02*
X0021618Y0264044D01*
X0021618Y0273923D02*
X0016472Y0273923D01*
X0016472Y0277099D01*
X0021618Y0277099D01*
X0021618Y0273923D01*
X0021618Y0275283D02*
X0016472Y0275283D01*
X0016472Y0276643D02*
X0021618Y0276643D01*
X0021018Y0191846D02*
X0015872Y0191846D01*
X0015872Y0195022D01*
X0021018Y0195022D01*
X0021018Y0191846D01*
X0021018Y0193206D02*
X0015872Y0193206D01*
X0015872Y0194566D02*
X0021018Y0194566D01*
X0021018Y0179247D02*
X0015872Y0179247D01*
X0015872Y0182423D01*
X0021018Y0182423D01*
X0021018Y0179247D01*
X0021018Y0180607D02*
X0015872Y0180607D01*
X0015872Y0181967D02*
X0021018Y0181967D01*
X0035163Y0182423D02*
X0040309Y0182423D01*
X0040309Y0179247D01*
X0035163Y0179247D01*
X0035163Y0182423D01*
X0035163Y0180607D02*
X0040309Y0180607D01*
X0040309Y0181967D02*
X0035163Y0181967D01*
X0035163Y0195022D02*
X0040309Y0195022D01*
X0040309Y0191846D01*
X0035163Y0191846D01*
X0035163Y0195022D01*
X0035163Y0193206D02*
X0040309Y0193206D01*
X0040309Y0194566D02*
X0035163Y0194566D01*
X0067822Y0138096D02*
X0072968Y0138096D01*
X0067822Y0138096D02*
X0067822Y0141272D01*
X0072968Y0141272D01*
X0072968Y0138096D01*
X0072968Y0139456D02*
X0067822Y0139456D01*
X0067822Y0140816D02*
X0072968Y0140816D01*
X0072968Y0125498D02*
X0067822Y0125498D01*
X0067822Y0128674D01*
X0072968Y0128674D01*
X0072968Y0125498D01*
X0072968Y0126858D02*
X0067822Y0126858D01*
X0067822Y0128218D02*
X0072968Y0128218D01*
X0087113Y0128674D02*
X0092259Y0128674D01*
X0092259Y0125498D01*
X0087113Y0125498D01*
X0087113Y0128674D01*
X0087113Y0126858D02*
X0092259Y0126858D01*
X0092259Y0128218D02*
X0087113Y0128218D01*
X0087113Y0141272D02*
X0092259Y0141272D01*
X0092259Y0138096D01*
X0087113Y0138096D01*
X0087113Y0141272D01*
X0087113Y0139456D02*
X0092259Y0139456D01*
X0092259Y0140816D02*
X0087113Y0140816D01*
X0124140Y0082978D02*
X0129286Y0082978D01*
X0124140Y0082978D02*
X0124140Y0086154D01*
X0129286Y0086154D01*
X0129286Y0082978D01*
X0129286Y0084338D02*
X0124140Y0084338D01*
X0124140Y0085698D02*
X0129286Y0085698D01*
X0129286Y0070379D02*
X0124140Y0070379D01*
X0124140Y0073555D01*
X0129286Y0073555D01*
X0129286Y0070379D01*
X0129286Y0071739D02*
X0124140Y0071739D01*
X0124140Y0073099D02*
X0129286Y0073099D01*
X0143431Y0073555D02*
X0148577Y0073555D01*
X0148577Y0070379D01*
X0143431Y0070379D01*
X0143431Y0073555D01*
X0143431Y0071739D02*
X0148577Y0071739D01*
X0148577Y0073099D02*
X0143431Y0073099D01*
X0143431Y0086154D02*
X0148577Y0086154D01*
X0148577Y0082978D01*
X0143431Y0082978D01*
X0143431Y0086154D01*
X0143431Y0084338D02*
X0148577Y0084338D01*
X0148577Y0085698D02*
X0143431Y0085698D01*
X0192174Y0027860D02*
X0197320Y0027860D01*
X0192174Y0027860D02*
X0192174Y0031036D01*
X0197320Y0031036D01*
X0197320Y0027860D01*
X0197320Y0029220D02*
X0192174Y0029220D01*
X0192174Y0030580D02*
X0197320Y0030580D01*
X0197320Y0015261D02*
X0192174Y0015261D01*
X0192174Y0018437D01*
X0197320Y0018437D01*
X0197320Y0015261D01*
X0197320Y0016621D02*
X0192174Y0016621D01*
X0192174Y0017981D02*
X0197320Y0017981D01*
X0211466Y0018437D02*
X0216612Y0018437D01*
X0216612Y0015261D01*
X0211466Y0015261D01*
X0211466Y0018437D01*
X0211466Y0016621D02*
X0216612Y0016621D01*
X0216612Y0017981D02*
X0211466Y0017981D01*
X0211466Y0031036D02*
X0216612Y0031036D01*
X0216612Y0027860D01*
X0211466Y0027860D01*
X0211466Y0031036D01*
X0211466Y0029220D02*
X0216612Y0029220D01*
X0216612Y0030580D02*
X0211466Y0030580D01*
D17*
X0212267Y0040334D02*
X0212267Y0045334D01*
X0204393Y0045334D02*
X0204393Y0040334D01*
X0196519Y0040334D02*
X0196519Y0045334D01*
X0188645Y0045334D02*
X0188645Y0040334D01*
X0220141Y0040334D02*
X0220141Y0045334D01*
X0228015Y0045334D02*
X0228015Y0040334D01*
X0254611Y0074930D02*
X0259611Y0074930D01*
X0259611Y0082804D02*
X0254611Y0082804D01*
X0254611Y0090678D02*
X0259611Y0090678D01*
X0259611Y0098552D02*
X0254611Y0098552D01*
X0254611Y0106426D02*
X0259611Y0106426D01*
X0259611Y0114300D02*
X0254611Y0114300D01*
X0310161Y0129448D02*
X0315161Y0129448D01*
X0315161Y0137322D02*
X0310161Y0137322D01*
X0310161Y0145196D02*
X0315161Y0145196D01*
X0315161Y0153070D02*
X0310161Y0153070D01*
X0310161Y0160944D02*
X0315161Y0160944D01*
X0315161Y0168818D02*
X0310161Y0168818D01*
X0364921Y0208788D02*
X0369921Y0208788D01*
X0369921Y0216662D02*
X0364921Y0216662D01*
X0364921Y0224536D02*
X0369921Y0224536D01*
X0369921Y0232410D02*
X0364921Y0232410D01*
X0364921Y0240284D02*
X0369921Y0240284D01*
X0369921Y0248158D02*
X0364921Y0248158D01*
X0314629Y0300250D02*
X0314629Y0305250D01*
X0306755Y0305250D02*
X0306755Y0300250D01*
X0298881Y0300250D02*
X0298881Y0305250D01*
X0291007Y0305250D02*
X0291007Y0300250D01*
X0283133Y0300250D02*
X0283133Y0305250D01*
X0275259Y0305250D02*
X0275259Y0300250D01*
X0137464Y0300250D02*
X0137464Y0305250D01*
X0129590Y0305250D02*
X0129590Y0300250D01*
X0121716Y0300250D02*
X0121716Y0305250D01*
X0113842Y0305250D02*
X0113842Y0300250D01*
X0105968Y0300250D02*
X0105968Y0305250D01*
X0098094Y0305250D02*
X0098094Y0300250D01*
X0045402Y0247558D02*
X0040402Y0247558D01*
X0040402Y0239684D02*
X0045402Y0239684D01*
X0045402Y0231810D02*
X0040402Y0231810D01*
X0040402Y0223936D02*
X0045402Y0223936D01*
X0045402Y0216062D02*
X0040402Y0216062D01*
X0040402Y0208188D02*
X0045402Y0208188D01*
X0096025Y0164881D02*
X0101025Y0164881D01*
X0101025Y0157007D02*
X0096025Y0157007D01*
X0096025Y0149133D02*
X0101025Y0149133D01*
X0101025Y0141259D02*
X0096025Y0141259D01*
X0096025Y0133385D02*
X0101025Y0133385D01*
X0101025Y0125511D02*
X0096025Y0125511D01*
X0152943Y0109763D02*
X0157943Y0109763D01*
X0157943Y0101889D02*
X0152943Y0101889D01*
X0152943Y0094015D02*
X0157943Y0094015D01*
X0157943Y0086141D02*
X0152943Y0086141D01*
X0152943Y0078267D02*
X0157943Y0078267D01*
X0157943Y0070393D02*
X0152943Y0070393D01*
D18*
X0194846Y0264369D03*
X0213940Y0264369D03*
D19*
X0218665Y0273217D03*
X0218665Y0275217D03*
X0218665Y0277217D03*
X0190121Y0277217D03*
X0190121Y0275217D03*
X0190121Y0273217D03*
D20*
X0182143Y0211400D03*
M02*
